<svg xmlns="http://www.w3.org/2000/svg" xmlns:xlink="http://www.w3.org/1999/xlink" xmlns:lucid="lucid" width="4804.67" height="3600"><g transform="translate(960 3740)" lucid:page-tab-id="0_0"><path d="M2310-2225c0 439.07-355.93 795-795 795s-795-355.93-795-795 355.93-795 795-795 795 355.93 795 795z" stroke="#000" stroke-width="2" fill-opacity="0"/><path d="M1444.67-2440h160v120h-160z" stroke="#000" stroke-width="2" fill="#fff"/><use xlink:href="#a" transform="matrix(1,0,0,1,1449.6666666666667,-2435) translate(10.099999999999994 59.0875)"/><use xlink:href="#b" transform="matrix(1,0,0,1,1449.6666666666667,-2435) translate(53.99999999999999 59.0875)"/><path d="M1444.67-1260h160v120h-160z" stroke="#000" stroke-width="2" fill="#fff"/><use xlink:href="#c" transform="matrix(1,0,0,1,1449.6666666666667,-1255) translate(34.55 59.0875)"/><path d="M1444.67-2740h160v120h-160z" stroke="#000" stroke-width="2" fill="#fff"/><use xlink:href="#d" transform="matrix(1,0,0,1,1449.6666666666667,-2735) translate(12.074999999999996 59.0875)"/><use xlink:href="#b" transform="matrix(1,0,0,1,1449.6666666666667,-2735) translate(52.025 59.0875)"/><path d="M1444.67-1020h160v120h-160z" stroke="#000" stroke-width="2" fill="#fff"/><use xlink:href="#e" transform="matrix(1,0,0,1,1449.6666666666665,-1015) translate(47.525 59.0875)"/><path d="M880-1680h160v120H880z" stroke="#000" stroke-width="2" fill="#fff"/><use xlink:href="#f" transform="matrix(1,0,0,1,885,-1675) translate(42.05 59.0875)"/><path d="M1444.67-1500h160v120h-160z" stroke="#000" stroke-width="2" fill="#fff"/><use xlink:href="#g" transform="matrix(1,0,0,1,1449.6666666666667,-1495) translate(38.55 59.0875)"/><path d="M1980-1700h160v120h-160z" stroke="#000" stroke-width="2" fill="#fff"/><use xlink:href="#h" transform="matrix(1,0,0,1,1985,-1695) translate(44.574999999999996 59.0875)"/><path d="M1444.67-2140h160v120h-160z" stroke="#000" stroke-width="2" fill="#fff"/><use xlink:href="#i" transform="matrix(1,0,0,1,1449.6666666666667,-2135) translate(49.575 59.0875)"/><path d="M2220-2150h160v120h-160z" stroke="#000" stroke-width="2" fill="#fff"/><use xlink:href="#j" transform="matrix(1,0,0,1,2225,-2145) translate(50.55 59.0875)"/><path d="M2140-2660h160v120h-160z" stroke="#000" stroke-width="2" fill="#fff"/><use xlink:href="#k" transform="matrix(1,0,0,1,2145,-2655) translate(13.099999999999994 59.0875)"/><use xlink:href="#l" transform="matrix(1,0,0,1,2145,-2655) translate(102.95 59.0875)"/><path d="M2940-2820h160v120h-160z" stroke="#000" stroke-width="2" fill="#fff"/><use xlink:href="#k" transform="matrix(1,0,0,1,2945,-2815) translate(13.099999999999994 59.0875)"/><use xlink:href="#m" transform="matrix(1,0,0,1,2945,-2815) translate(102.95 59.0875)"/><path d="M3664.67-2840h160v120h-160z" stroke="#000" stroke-width="2" fill="#fff"/><use xlink:href="#k" transform="matrix(1,0,0,1,3669.666666666667,-2835) translate(13.099999999999994 59.0875)"/><use xlink:href="#n" transform="matrix(1,0,0,1,3669.666666666667,-2835) translate(102.95 59.0875)"/><path d="M778.67-562h160v120h-160z" stroke="#000" stroke-width="2" fill="#fff"/><use xlink:href="#o" transform="matrix(1,0,0,1,783.6666666666666,-557) translate(8.549999999999997 48.775)"/><use xlink:href="#p" transform="matrix(1,0,0,1,783.6666666666666,-557) translate(92.45 48.775)"/><use xlink:href="#q" transform="matrix(1,0,0,1,783.6666666666666,-557) translate(63.525 70.375)"/><path d="M2110.67-562h160v120h-160z" stroke="#000" stroke-width="2" fill="#fff"/><use xlink:href="#r" transform="matrix(1,0,0,1,2115.666666666667,-557) translate(7.75 48.775)"/><use xlink:href="#s" transform="matrix(1,0,0,1,2115.666666666667,-557) translate(67.7 48.775)"/><use xlink:href="#q" transform="matrix(1,0,0,1,2115.666666666667,-557) translate(63.525 70.375)"/><path d="M778.67-280h160v120h-160z" stroke="#000" stroke-width="2" fill="#fff"/><use xlink:href="#o" transform="matrix(1,0,0,1,783.6666666666666,-275) translate(8.549999999999997 48.775)"/><use xlink:href="#p" transform="matrix(1,0,0,1,783.6666666666666,-275) translate(92.45 48.775)"/><use xlink:href="#t" transform="matrix(1,0,0,1,783.6666666666666,-275) translate(63.525 70.375)"/><path d="M2110.67-280h160v120h-160z" stroke="#000" stroke-width="2" fill="#fff"/><use xlink:href="#r" transform="matrix(1,0,0,1,2115.666666666667,-275) translate(7.75 48.775)"/><use xlink:href="#s" transform="matrix(1,0,0,1,2115.666666666667,-275) translate(67.7 48.775)"/><use xlink:href="#t" transform="matrix(1,0,0,1,2115.666666666667,-275) translate(63.525 70.375)"/><path d="M240-1560h160v120H240z" stroke="#000" stroke-width="2" fill="#fff"/><use xlink:href="#u" transform="matrix(1,0,0,1,245,-1555) translate(1.0750000000000028 59.0875)"/><use xlink:href="#v" transform="matrix(1,0,0,1,245,-1555) translate(71.97500000000001 59.0875)"/><use xlink:href="#q" transform="matrix(1,0,0,1,245,-1555) translate(125.97500000000001 59.0875)"/><path d="M-100-1400H60v120h-160z" stroke="#000" stroke-width="2" fill="#fff"/><use xlink:href="#u" transform="matrix(1,0,0,1,-95,-1395) translate(1.0750000000000028 59.0875)"/><use xlink:href="#v" transform="matrix(1,0,0,1,-95,-1395) translate(71.97500000000001 59.0875)"/><use xlink:href="#t" transform="matrix(1,0,0,1,-95,-1395) translate(125.97500000000001 59.0875)"/><path d="M2260-1151h160v120h-160z" stroke="#000" stroke-width="2" fill="#fff"/><use xlink:href="#w" transform="matrix(1,0,0,1,2265,-1146) translate(3.5999999999999943 59.0875)"/><use xlink:href="#v" transform="matrix(1,0,0,1,2265,-1146) translate(69.45 59.0875)"/><use xlink:href="#q" transform="matrix(1,0,0,1,2265,-1146) translate(123.45 59.0875)"/><path d="M2840-1720h160v120h-160z" stroke="#000" stroke-width="2" fill="#fff"/><use xlink:href="#x" transform="matrix(1,0,0,1,2845,-1715) translate(38.55 48.775)"/><use xlink:href="#y" transform="matrix(1,0,0,1,2845,-1715) translate(23.75 70.375)"/><use xlink:href="#q" transform="matrix(1,0,0,1,2845,-1715) translate(103.3 70.375)"/><path d="M2760-620h160v120h-160z" stroke="#000" stroke-width="2" fill="#fff"/><use xlink:href="#w" transform="matrix(1,0,0,1,2765,-615) translate(3.5999999999999943 59.0875)"/><use xlink:href="#v" transform="matrix(1,0,0,1,2765,-615) translate(69.45 59.0875)"/><use xlink:href="#t" transform="matrix(1,0,0,1,2765,-615) translate(123.45 59.0875)"/><path d="M3280-1680h160v120h-160z" stroke="#000" stroke-width="2" fill="#fff"/><use xlink:href="#x" transform="matrix(1,0,0,1,3285,-1675) translate(38.55 48.775)"/><use xlink:href="#y" transform="matrix(1,0,0,1,3285,-1675) translate(23.75 70.375)"/><use xlink:href="#t" transform="matrix(1,0,0,1,3285,-1675) translate(103.3 70.375)"/><path d="M3020-2290h160v120h-160z" stroke="#000" stroke-width="2" fill="#fff"/><use xlink:href="#z" transform="matrix(1,0,0,1,3025,-2285) translate(31.074999999999996 59.0875)"/><use xlink:href="#l" transform="matrix(1,0,0,1,3025,-2285) translate(84.975 59.0875)"/><path d="M3020-1990h160v120h-160z" stroke="#000" stroke-width="2" fill="#fff"/><use xlink:href="#A" transform="matrix(1,0,0,1,3025,-1985) translate(21.549999999999997 48.775)"/><use xlink:href="#B" transform="matrix(1,0,0,1,3025,-1985) translate(99.5 48.775)"/><use xlink:href="#l" transform="matrix(1,0,0,1,3025,-1985) translate(58.025 70.375)"/><path d="M760-3239h160v120H760z" stroke="#000" stroke-width="2" fill="#fff"/><use xlink:href="#C" transform="matrix(1,0,0,1,765,-3234) translate(8.600000000000009 59.0875)"/><use xlink:href="#v" transform="matrix(1,0,0,1,765,-3234) translate(64.45000000000002 59.0875)"/><use xlink:href="#q" transform="matrix(1,0,0,1,765,-3234) translate(118.45 59.0875)"/><path d="M1160-3040h160v120h-160z" stroke="#000" stroke-width="2" fill="#fff"/><use xlink:href="#C" transform="matrix(1,0,0,1,1165,-3035) translate(30.099999999999994 59.0875)"/><use xlink:href="#l" transform="matrix(1,0,0,1,1165,-3035) translate(85.94999999999999 59.0875)"/><path d="M420-3560h160v120H420z" stroke="#000" stroke-width="2" fill="#fff"/><use xlink:href="#D" transform="matrix(1,0,0,1,425,-3555) translate(10.100000000000009 59.0875)"/><use xlink:href="#v" transform="matrix(1,0,0,1,425,-3555) translate(62.95000000000001 59.0875)"/><use xlink:href="#t" transform="matrix(1,0,0,1,425,-3555) translate(116.95 59.0875)"/><path d="M1580-3080h160v120h-160z" stroke="#000" stroke-width="2" fill="#fff"/><use xlink:href="#E" transform="matrix(1,0,0,1,1585,-3075) translate(13.049999999999997 48.775)"/><use xlink:href="#p" transform="matrix(1,0,0,1,1585,-3075) translate(87.95 48.775)"/><use xlink:href="#q" transform="matrix(1,0,0,1,1585,-3075) translate(63.525 70.375)"/><path d="M1654.67-561h160v120h-160z" stroke="#000" stroke-width="2" fill="#fff"/><use xlink:href="#r" transform="matrix(1,0,0,1,1659.666666666667,-556) translate(6.549999999999997 59.0875)"/><use xlink:href="#v" transform="matrix(1,0,0,1,1659.666666666667,-556) translate(66.5 59.0875)"/><use xlink:href="#q" transform="matrix(1,0,0,1,1659.666666666667,-556) translate(120.5 59.0875)"/><path d="M1654.67-280h160v120h-160z" stroke="#000" stroke-width="2" fill="#fff"/><use xlink:href="#r" transform="matrix(1,0,0,1,1659.666666666667,-275) translate(6.549999999999997 59.0875)"/><use xlink:href="#v" transform="matrix(1,0,0,1,1659.666666666667,-275) translate(66.5 59.0875)"/><use xlink:href="#t" transform="matrix(1,0,0,1,1659.666666666667,-275) translate(120.5 59.0875)"/><path d="M1198.67-561h160v120h-160z" stroke="#000" stroke-width="2" fill="#fff"/><use xlink:href="#F" transform="matrix(1,0,0,1,1203.6666666666665,-556) translate(35.55 48.775)"/><use xlink:href="#y" transform="matrix(1,0,0,1,1203.6666666666665,-556) translate(23.75 70.375)"/><use xlink:href="#q" transform="matrix(1,0,0,1,1203.6666666666665,-556) translate(103.3 70.375)"/><path d="M1198.67-280h160v120h-160z" stroke="#000" stroke-width="2" fill="#fff"/><use xlink:href="#F" transform="matrix(1,0,0,1,1203.6666666666665,-275) translate(35.55 48.775)"/><use xlink:href="#y" transform="matrix(1,0,0,1,1203.6666666666665,-275) translate(23.75 70.375)"/><use xlink:href="#t" transform="matrix(1,0,0,1,1203.6666666666665,-275) translate(103.3 70.375)"/><path d="M560-1331h160v120H560z" stroke="#000" stroke-width="2" fill="#fff"/><use xlink:href="#u" transform="matrix(1,0,0,1,565,-1326) translate(2.2750000000000057 48.775)"/><use xlink:href="#s" transform="matrix(1,0,0,1,565,-1326) translate(73.17500000000001 48.775)"/><use xlink:href="#q" transform="matrix(1,0,0,1,565,-1326) translate(63.525 70.375)"/><path d="M220-1151h160v120H220z" stroke="#000" stroke-width="2" fill="#fff"/><use xlink:href="#u" transform="matrix(1,0,0,1,225,-1146) translate(2.2750000000000057 48.775)"/><use xlink:href="#s" transform="matrix(1,0,0,1,225,-1146) translate(73.17500000000001 48.775)"/><use xlink:href="#t" transform="matrix(1,0,0,1,225,-1146) translate(63.525 70.375)"/><path d="M2580-1320h160v120h-160z" stroke="#000" stroke-width="2" fill="#fff"/><use xlink:href="#w" transform="matrix(1,0,0,1,2585,-1315) translate(4.799999999999997 48.775)"/><use xlink:href="#s" transform="matrix(1,0,0,1,2585,-1315) translate(70.65 48.775)"/><use xlink:href="#q" transform="matrix(1,0,0,1,2585,-1315) translate(63.525 70.375)"/><path d="M3140-920h160v120h-160z" stroke="#000" stroke-width="2" fill="#fff"/><use xlink:href="#w" transform="matrix(1,0,0,1,3145,-915) translate(4.799999999999997 48.775)"/><use xlink:href="#s" transform="matrix(1,0,0,1,3145,-915) translate(70.65 48.775)"/><use xlink:href="#t" transform="matrix(1,0,0,1,3145,-915) translate(63.525 70.375)"/><path d="M2660-1000.5h160v120h-160z" stroke="#000" stroke-width="2" fill="#fff"/><use xlink:href="#w" transform="matrix(1,0,0,1,2665,-995.5) translate(25.099999999999994 59.0875)"/><use xlink:href="#l" transform="matrix(1,0,0,1,2665,-995.5) translate(90.95 59.0875)"/><path d="M3260-500h160v120h-160z" stroke="#000" stroke-width="2" fill="#fff"/><use xlink:href="#w" transform="matrix(1,0,0,1,3265,-495) translate(25.099999999999994 59.0875)"/><use xlink:href="#m" transform="matrix(1,0,0,1,3265,-495) translate(90.95 59.0875)"/><path d="M2840-1480h160v120h-160z" stroke="#000" stroke-width="2" fill="#fff"/><use xlink:href="#G" transform="matrix(1,0,0,1,2845,-1475) translate(11.549999999999997 48.775)"/><use xlink:href="#p" transform="matrix(1,0,0,1,2845,-1475) translate(89.45 48.775)"/><use xlink:href="#q" transform="matrix(1,0,0,1,2845,-1475) translate(63.525 70.375)"/><path d="M3320-1400h160v120h-160z" stroke="#000" stroke-width="2" fill="#fff"/><use xlink:href="#G" transform="matrix(1,0,0,1,3325,-1395) translate(11.549999999999997 48.775)"/><use xlink:href="#p" transform="matrix(1,0,0,1,3325,-1395) translate(89.45 48.775)"/><use xlink:href="#t" transform="matrix(1,0,0,1,3325,-1395) translate(63.525 70.375)"/><path d="M2480-2960h160v120h-160z" stroke="#000" stroke-width="2" fill="#fff"/><use xlink:href="#k" transform="matrix(1,0,0,1,2485,-2955) translate(5.574999999999989 48.775)"/><use xlink:href="#p" transform="matrix(1,0,0,1,2485,-2955) translate(95.425 48.775)"/><use xlink:href="#q" transform="matrix(1,0,0,1,2485,-2955) translate(63.525 70.375)"/><path d="M2560-2590h160v120h-160z" stroke="#000" stroke-width="2" fill="#fff"/><use xlink:href="#H" transform="matrix(1,0,0,1,2565,-2585) translate(32.574999999999996 48.775)"/><use xlink:href="#I" transform="matrix(1,0,0,1,2565,-2585) translate(28.75 70.375)"/><use xlink:href="#q" transform="matrix(1,0,0,1,2565,-2585) translate(98.3 70.375)"/><path d="M3300-3040h160v120h-160z" stroke="#000" stroke-width="2" fill="#fff"/><use xlink:href="#k" transform="matrix(1,0,0,1,3305,-3035) translate(5.574999999999989 48.775)"/><use xlink:href="#p" transform="matrix(1,0,0,1,3305,-3035) translate(95.425 48.775)"/><use xlink:href="#t" transform="matrix(1,0,0,1,3305,-3035) translate(63.525 70.375)"/><path d="M3320-2590h160v120h-160z" stroke="#000" stroke-width="2" fill="#fff"/><use xlink:href="#H" transform="matrix(1,0,0,1,3325,-2585) translate(32.574999999999996 48.775)"/><use xlink:href="#y" transform="matrix(1,0,0,1,3325,-2585) translate(23.75 70.375)"/><use xlink:href="#t" transform="matrix(1,0,0,1,3325,-2585) translate(103.3 70.375)"/><path d="M1580-3500h160v120h-160z" stroke="#000" stroke-width="2" fill="#fff"/><use xlink:href="#J" transform="matrix(1,0,0,1,1585,-3495) translate(10.549999999999997 48.775)"/><use xlink:href="#p" transform="matrix(1,0,0,1,1585,-3495) translate(90.45 48.775)"/><use xlink:href="#t" transform="matrix(1,0,0,1,1585,-3495) translate(63.525 70.375)"/><path d="M2595-1990h160v120h-160z" stroke="#000" stroke-width="2" fill="#fff"/><use xlink:href="#K" transform="matrix(1,0,0,1,2600,-1985) translate(38.525 48.775)"/><use xlink:href="#y" transform="matrix(1,0,0,1,2600,-1985) translate(23.75 70.375)"/><use xlink:href="#q" transform="matrix(1,0,0,1,2600,-1985) translate(103.3 70.375)"/><path d="M2595-2290h160v120h-160z" stroke="#000" stroke-width="2" fill="#fff"/><use xlink:href="#z" transform="matrix(1,0,0,1,2600,-2285) translate(10.775000000000006 48.775)"/><use xlink:href="#s" transform="matrix(1,0,0,1,2600,-2285) translate(64.67500000000001 48.775)"/><use xlink:href="#q" transform="matrix(1,0,0,1,2600,-2285) translate(63.525 70.375)"/><path d="M1060-3420h160v120h-160z" stroke="#000" stroke-width="2" fill="#fff"/><use xlink:href="#C" transform="matrix(1,0,0,1,1065,-3415) translate(7.474999999999994 48.775)"/><use xlink:href="#L" transform="matrix(1,0,0,1,1065,-3415) translate(63.324999999999996 48.775)"/><use xlink:href="#q" transform="matrix(1,0,0,1,1065,-3415) translate(63.525 70.375)"/><path d="M778-3720h160v120H778z" stroke="#000" stroke-width="2" fill="#fff"/><use xlink:href="#D" transform="matrix(1,0,0,1,783,-3715) translate(11.299999999999997 48.775)"/><use xlink:href="#s" transform="matrix(1,0,0,1,783,-3715) translate(64.15 48.775)"/><use xlink:href="#t" transform="matrix(1,0,0,1,783,-3715) translate(63.525 70.375)"/><path d="M1860-2980h160v120h-160z" stroke="#000" stroke-width="2" fill="#fff"/><use xlink:href="#E" transform="matrix(1,0,0,1,1865,-2975) translate(0.2750000000000057 48.775)"/><use xlink:href="#s" transform="matrix(1,0,0,1,1865,-2975) translate(75.17500000000001 48.775)"/><use xlink:href="#q" transform="matrix(1,0,0,1,1865,-2975) translate(63.525 70.375)"/><path d="M2040-3420h160v120h-160z" stroke="#000" stroke-width="2" fill="#fff"/><use xlink:href="#M" transform="matrix(1,0,0,1,2045,-3415) translate(40.05 48.775)"/><use xlink:href="#y" transform="matrix(1,0,0,1,2045,-3415) translate(23.75 70.375)"/><use xlink:href="#t" transform="matrix(1,0,0,1,2045,-3415) translate(103.3 70.375)"/><path d="M855.2-2840h160v120h-160z" stroke="#000" stroke-width="2" fill="#fff"/><use xlink:href="#d" transform="matrix(1,0,0,1,860.1999999999999,-2835) translate(12.074999999999996 48.775)"/><use xlink:href="#N" transform="matrix(1,0,0,1,860.1999999999999,-2835) translate(52.025 48.775)"/><use xlink:href="#v" transform="matrix(1,0,0,1,860.1999999999999,-2835) translate(36.525 70.375)"/><use xlink:href="#q" transform="matrix(1,0,0,1,860.1999999999999,-2835) translate(90.525 70.375)"/><path d="M300-3100h160v120H300z" stroke="#000" stroke-width="2" fill="#fff"/><use xlink:href="#d" transform="matrix(1,0,0,1,305,-3095) translate(12.074999999999996 48.775)"/><use xlink:href="#N" transform="matrix(1,0,0,1,305,-3095) translate(52.025 48.775)"/><use xlink:href="#v" transform="matrix(1,0,0,1,305,-3095) translate(34.025 70.375)"/><use xlink:href="#O" transform="matrix(1,0,0,1,305,-3095) translate(88.025 70.375)"/><use xlink:href="#P" transform="matrix(1,0,0,1,305,-3095) translate(105.975 70.375)"/><path d="M280-2120h160v120H280z" stroke="#000" stroke-width="2" fill="#fff"/><use xlink:href="#a" transform="matrix(1,0,0,1,284.99999999999994,-2115) translate(10.099999999999994 48.775)"/><use xlink:href="#N" transform="matrix(1,0,0,1,284.99999999999994,-2115) translate(53.99999999999999 48.775)"/><use xlink:href="#Q" transform="matrix(1,0,0,1,284.99999999999994,-2115) translate(55.525 70.375)"/><use xlink:href="#R" transform="matrix(1,0,0,1,284.99999999999994,-2115) translate(84.475 70.375)"/><path d="M660-2120h160v120H660z" stroke="#000" stroke-width="2" fill="#fff"/><use xlink:href="#S" transform="matrix(1,0,0,1,665,-2115) translate(42.025 48.775)"/><use xlink:href="#T" transform="matrix(1,0,0,1,665,-2115) translate(12.574999999999996 70.375)"/><use xlink:href="#l" transform="matrix(1,0,0,1,665,-2115) translate(103.475 70.375)"/><path d="M695.2-2600h160v120h-160z" stroke="#000" stroke-width="2" fill="#fff"/><use xlink:href="#d" transform="matrix(1,0,0,1,700.1999999999999,-2595) translate(12.074999999999996 48.775)"/><use xlink:href="#N" transform="matrix(1,0,0,1,700.1999999999999,-2595) translate(52.025 48.775)"/><use xlink:href="#y" transform="matrix(1,0,0,1,700.1999999999999,-2595) translate(23.75 70.375)"/><use xlink:href="#q" transform="matrix(1,0,0,1,700.1999999999999,-2595) translate(103.3 70.375)"/><path d="M100-2780h160v120H100z" stroke="#000" stroke-width="2" fill="#fff"/><use xlink:href="#d" transform="matrix(1,0,0,1,105,-2775) translate(12.074999999999996 48.775)"/><use xlink:href="#N" transform="matrix(1,0,0,1,105,-2775) translate(52.025 48.775)"/><use xlink:href="#y" transform="matrix(1,0,0,1,105,-2775) translate(21.25 70.375)"/><use xlink:href="#O" transform="matrix(1,0,0,1,105,-2775) translate(100.8 70.375)"/><use xlink:href="#P" transform="matrix(1,0,0,1,105,-2775) translate(118.75 70.375)"/><path d="M-320-2540h160v120h-160z" stroke="#000" stroke-width="2" fill="#fff"/><use xlink:href="#S" transform="matrix(1,0,0,1,-315,-2535) translate(42.025 38.4625)"/><use xlink:href="#T" transform="matrix(1,0,0,1,-315,-2535) translate(5.049999999999997 60.0625)"/><use xlink:href="#p" transform="matrix(1,0,0,1,-315,-2535) translate(95.95 60.0625)"/><use xlink:href="#q" transform="matrix(1,0,0,1,-315,-2535) translate(63.525 81.66250000000001)"/><path d="M-180-2280h160v120h-160z" stroke="#000" stroke-width="2" fill="#fff"/><use xlink:href="#S" transform="matrix(1,0,0,1,-175,-2275) translate(42.025 38.4625)"/><use xlink:href="#N" transform="matrix(1,0,0,1,-175,-2275) translate(32.05 60.0625)"/><use xlink:href="#y" transform="matrix(1,0,0,1,-175,-2275) translate(23.75 81.66250000000001)"/><use xlink:href="#q" transform="matrix(1,0,0,1,-175,-2275) translate(103.3 81.66250000000001)"/><path d="M-180-1980h160v120h-160z" stroke="#000" stroke-width="2" fill="#fff"/><use xlink:href="#a" transform="matrix(1,0,0,1,-175,-1975) translate(10.099999999999994 48.775)"/><use xlink:href="#N" transform="matrix(1,0,0,1,-175,-1975) translate(53.99999999999999 48.775)"/><use xlink:href="#v" transform="matrix(1,0,0,1,-175,-1975) translate(36.525 70.375)"/><use xlink:href="#q" transform="matrix(1,0,0,1,-175,-1975) translate(90.525 70.375)"/><path d="M-320-1720h160v120h-160z" stroke="#000" stroke-width="2" fill="#fff"/><use xlink:href="#a" transform="matrix(1,0,0,1,-315,-1715) translate(10.099999999999994 48.775)"/><use xlink:href="#N" transform="matrix(1,0,0,1,-315,-1715) translate(53.99999999999999 48.775)"/><use xlink:href="#y" transform="matrix(1,0,0,1,-315,-1715) translate(23.75 70.375)"/><use xlink:href="#q" transform="matrix(1,0,0,1,-315,-1715) translate(103.3 70.375)"/><path d="M-940-2740h160v120h-160z" stroke="#000" stroke-width="2" fill="#fff"/><use xlink:href="#S" transform="matrix(1,0,0,1,-935,-2735) translate(42.025 38.4625)"/><use xlink:href="#T" transform="matrix(1,0,0,1,-935,-2735) translate(5.049999999999997 60.0625)"/><use xlink:href="#p" transform="matrix(1,0,0,1,-935,-2735) translate(95.95 60.0625)"/><use xlink:href="#t" transform="matrix(1,0,0,1,-935,-2735) translate(63.525 81.66250000000001)"/><path d="M-840-2280h160v120h-160z" stroke="#000" stroke-width="2" fill="#fff"/><use xlink:href="#S" transform="matrix(1,0,0,1,-835,-2275) translate(42.025 38.4625)"/><use xlink:href="#N" transform="matrix(1,0,0,1,-835,-2275) translate(32.05 60.0625)"/><use xlink:href="#y" transform="matrix(1,0,0,1,-835,-2275) translate(23.75 81.66250000000001)"/><use xlink:href="#t" transform="matrix(1,0,0,1,-835,-2275) translate(103.3 81.66250000000001)"/><path d="M-940-1520h160v120h-160z" stroke="#000" stroke-width="2" fill="#fff"/><use xlink:href="#a" transform="matrix(1,0,0,1,-935,-1515) translate(10.099999999999994 48.775)"/><use xlink:href="#N" transform="matrix(1,0,0,1,-935,-1515) translate(53.99999999999999 48.775)"/><use xlink:href="#y" transform="matrix(1,0,0,1,-935,-1515) translate(23.75 70.375)"/><use xlink:href="#t" transform="matrix(1,0,0,1,-935,-1515) translate(103.3 70.375)"/><path d="M-840-1980h160v120h-160z" stroke="#000" stroke-width="2" fill="#fff"/><use xlink:href="#a" transform="matrix(1,0,0,1,-835,-1975) translate(10.099999999999994 48.775)"/><use xlink:href="#N" transform="matrix(1,0,0,1,-835,-1975) translate(53.99999999999999 48.775)"/><use xlink:href="#v" transform="matrix(1,0,0,1,-835,-1975) translate(36.525 70.375)"/><use xlink:href="#q" transform="matrix(1,0,0,1,-835,-1975) translate(90.525 70.375)"/><path d="M1524.67-2618v176" stroke="#000" stroke-width="2" fill="none"/><path d="M1525.67-2617.97h-2v-1.03h2zM1525.67-2441h-2v-1.03h2z"/><path d="M1524.67-2318v176" stroke="#000" stroke-width="2" fill="none"/><path d="M1525.67-2317.97h-2v-1.03h2zM1525.67-2141h-2v-1.03h2z"/><path d="M1524.67-1502v-516" stroke="#000" stroke-width="2" fill="none"/><path d="M1525.67-1501h-2v-1.03h2zM1525.67-2017.97h-2v-1.03h2z"/><path d="M1524.67-1022v-116" stroke="#000" stroke-width="2" fill="none"/><path d="M1525.67-1021h-2v-1.03h2zM1525.67-1137.97h-2v-1.03h2z"/><path d="M1734.67-282v-157" stroke="#000" stroke-width="2" fill="none"/><path d="M1735.67-281h-2v-1.03h2zM1735.67-438.97h-2V-440h2z"/><path d="M2190.67-282v-158" stroke="#000" stroke-width="2" fill="none"/><path d="M2191.67-281h-2v-1.03h2zM2191.67-439.97h-2V-441h2z"/><path d="M1278.67-282v-157" stroke="#000" stroke-width="2" fill="none"/><path d="M1279.67-281h-2v-1.03h2zM1279.67-438.97h-2V-440h2z"/><path d="M858.67-282v-158" stroke="#000" stroke-width="2" fill="none"/><path d="M859.67-281h-2v-1.03h2zM859.67-439.97h-2V-441h2z"/><path d="M878-1558.88l-476 58.76" stroke="#000" stroke-width="2" fill="none"/><path d="M879-1559h3.02l.08.62-4 .5-.24-2 1.14-.13zM402.14-1499.13l-1.14.14v-2l.9-.12z"/><path d="M878.52-1558.12l-157.04 285.24" stroke="#000" stroke-width="2" fill="none"/><path d="M879-1559h1.14l-.76 1.38-1.75-.96 1.37-2.5zM722.37-1272.42l-1.37 2.5v-3.25z"/><path d="M558.17-1209.44l-176.34 117.88" stroke="#000" stroke-width="2" fill="none"/><path d="M559-1210h1.8l-2.1 1.4-1.1-1.66 1.4-.94zM382.4-1090.74l-1.4.94v-2.4l.3-.2z"/><path d="M238.13-1438.5l-176.26 98" stroke="#000" stroke-width="2" fill="none"/><path d="M239-1439h2.06l-2.47 1.37-.98-1.75 1.38-.76zM62.38-1339.62l-1.38.76v-2.28l.4-.23z"/><path d="M1523.77-898.55l-664.2 335.1" stroke="#000" stroke-width="2" fill="none"/><path d="M1524.2-897.65l-.68-1.35h3.37zM859.82-563h-3.37l2.68-1.35z"/><path d="M1524.07-898.2l-248.52 335.4" stroke="#000" stroke-width="2" fill="none"/><path d="M1524.86-897.58l-1.6-1.2.16-.22h2.5zM1276.37-562.23l-.17.23h-2.5l1.06-1.42z"/><path d="M1734.14-562.85l-208.94-335.3" stroke="#000" stroke-width="2" fill="none"/><path d="M1735.84-562h-2.35l-.22-.34 1.7-1.06zM1526.06-898.66l-1.7 1.06-.87-1.4h2.34z"/><path d="M2179.33-563.46l-653.77-335.08" stroke="#000" stroke-width="2" fill="none"/><path d="M2182.4-563h-3.33l.7-1.36zM1525.12-897.64l-2.65-1.36h3.35z"/><path d="M2136.78-1578.1l202.8 425.2" stroke="#000" stroke-width="2" fill="none"/><path d="M2137.7-1578.5l-1.8.86-.66-1.36h2.22zM2341.1-1152h-2.2l-.24-.5 1.8-.86z"/><path d="M2137.25-1578.56l521.85 257.12" stroke="#000" stroke-width="2" fill="none"/><path d="M2136.83-1577.65l-2.74-1.35h3.4zM2662.26-1321h-3.4l.66-1.35z"/><path d="M2137.33-1578.78l700.7 158.56" stroke="#000" stroke-width="2" fill="none"/><path d="M2137.13-1577.8l-3.92-.9.08-.3h4.12zM2839-1421.03v2.06l-1.22-.28.44-1.95z"/><path d="M2137.35-1579.1l700.66-80.8" stroke="#000" stroke-width="2" fill="none"/><path d="M2137.5-1578.12l-4 .46-.17-1.34h4.05zM2839-1659l-.9.1-.23-1.98 1.13-.13z"/><path d="M2421.96-1090.73l317.08 88.96" stroke="#000" stroke-width="2" fill="none"/><path d="M2422.26-1091.7l-.54 1.94-.72-.2v-2.08zM2743.16-1001.65l-.04.15h-4.2l.36-1.24z"/><path d="M2660.38-1198.07l79.24 195.64" stroke="#000" stroke-width="2" fill="none"/><path d="M2661.3-1198.42l-1.84.75-.54-1.33h2.16zM2741.08-1001.5h-2.16l-.23-.58 1.84-.75z"/><path d="M2821.07-878.5l18.86 256.5" stroke="#000" stroke-width="2" fill="none"/><path d="M2822.07-878.55l-2 .15-.07-1.1h1v-3l.78-.07zM2841-621h-2l-.07-.95 2-.15z"/><path d="M2822-879.44l316 19.38" stroke="#000" stroke-width="2" fill="none"/><path d="M2822.08-880.44l-.12 2-4.02-.25.05-.8h3v-1zM3139-861v2l-1.08-.06.12-2z"/><path d="M3220.37-798.07l119.26 296.14" stroke="#000" stroke-width="2" fill="none"/><path d="M3221.3-798.42l-1.84.74-.54-1.32h2.16zM3341.08-501h-2.16l-.23-.58 1.84-.74z"/><path d="M2922-559.86l417 58.72" stroke="#000" stroke-width="2" fill="none"/><path d="M2922.16-560.85l-.28 1.98-.88-.12v-2zM3343.1-501.57l-.07.57h-4.07l.16-1.13z"/><path d="M3002-1659.86l276 39.72" stroke="#000" stroke-width="2" fill="none"/><path d="M3002.16-1660.84l-.3 1.98-.86-.13v-2zM3279-1621v2l-1.16-.16.3-1.98z"/><path d="M2381.84-2090.55l211.32-138.9" stroke="#000" stroke-width="2" fill="none"/><path d="M2382.4-2089.73l-1.4.93v-2.4l.3-.2zM2594-2228.8l-.3.2-1.1-1.67 1.4-.93z"/><path d="M2381.8-2089.4l211.4 158.8" stroke="#000" stroke-width="2" fill="none"/><path d="M2382.42-2090.18l-1.2 1.6-.22-.17v-2.5zM2594-1931.25v2.5l-1.42-1.07 1.2-1.6z"/><path d="M2757-1930h261" stroke="#000" stroke-width="2" fill="none"/><path d="M2757.03-1929H2756v-2h1.03zM3019-1929h-1.03v-2h1.03z"/><path d="M2757-2230h261" stroke="#000" stroke-width="2" fill="none"/><path d="M2757.03-2229H2756v-2h1.03zM3019-2229h-1.03v-2h1.03z"/><path d="M3001.97-1419.76l316.06 79.52" stroke="#000" stroke-width="2" fill="none"/><path d="M3002.24-1420.72l-.5 1.94-.74-.2v-2.05zM3319-1341.03v2.06l-1.24-.3.5-1.95z"/><path d="M2301.97-2599.74l256.06 69.48" stroke="#000" stroke-width="2" fill="none"/><path d="M2302.25-2600.7l-.52 1.93-.73-.2v-2.07zM2559-2531.04v2.08l-1.25-.34.52-1.93z"/><path d="M2301.5-2600.86l177-298.28" stroke="#000" stroke-width="2" fill="none"/><path d="M2302.38-2600.37l-1.38 2.33v-3.15zM2479-2898.8l-1.38-.83 1.38-2.33z"/><path d="M2721.7-2530.73l216.6-228.54" stroke="#000" stroke-width="2" fill="none"/><path d="M2722.43-2530.06l-1.43 1.5v-2.85zM2939-2758.6l-1.43-1.34 1.43-1.5z"/><path d="M2641.9-2899.57l296.2 139.14" stroke="#000" stroke-width="2" fill="none"/><path d="M2642.35-2900.47l-.85 1.8-.5-.23v-2.2zM2939-2761.1v2.2l-1.35-.63.85-1.8z"/><path d="M3101.67-2760.74l196.66-218.52" stroke="#000" stroke-width="2" fill="none"/><path d="M3102.43-2760.1l-1.43 1.6v-2.88zM3299-2978.62l-1.43-1.3 1.43-1.57z"/><path d="M3101.7-2759.27l216.6 228.54" stroke="#000" stroke-width="2" fill="none"/><path d="M3102.43-2759.94l-1.43 1.35v-2.85zM3319-2528.55l-1.43-1.5 1.43-1.36z"/><path d="M3481.6-2530.8l181.48-248.4" stroke="#000" stroke-width="2" fill="none"/><path d="M3482.4-2530.24l-1.4 1.94v-2.97zM3663.67-2778.73l-1.42-1.03 1.42-1.94z"/><path d="M3461.7-2979.3l201.26 201.26" stroke="#000" stroke-width="2" fill="none"/><path d="M3462.43-2979.98l-1.4 1.4h-.03v-2.83zM3663.67-2778.75v2.83l-1.44-1.43 1.42-1.42z"/><path d="M658-2060H442" stroke="#000" stroke-width="2" fill="none"/><path d="M659-2059h-1.03v-2H659zM442.03-2059H441v-2h1.03z"/><path d="M278.12-2060.47l-296.24-159.06" stroke="#000" stroke-width="2" fill="none"/><path d="M279-2061.14v2.28l-1.38-.74.95-1.77zM-17.62-2220.4l-.95 1.77-.43-.23v-2.28z"/><path d="M278.1-2059.57l-296.2 139.14" stroke="#000" stroke-width="2" fill="none"/><path d="M279-2058.9l-.5.24-.85-1.8 1.35-.64zM-17.65-1919.53l-1.35.63v-2.2l.5-.24z"/><path d="M-321.96-1598.7l-456.08 138.4" stroke="#000" stroke-width="2" fill="none"/><path d="M-321-1599h3.14l.02.1-3.85 1.15-.57-1.9 1.27-.4zM-777.73-1459.34l-1.27.4v-2.1l.7-.2z"/><path d="M278.26-2059.33l-436.52 398.66" stroke="#000" stroke-width="2" fill="none"/><path d="M279-2058.65l-.08.08-1.35-1.48 1.43-1.3zM-157.57-1659.95l-1.43 1.3v-2.7l.08-.08z"/><path d="M278.28-2060.7l-436.56-418.6" stroke="#000" stroke-width="2" fill="none"/><path d="M279-2061.4v2.8l-1.43-1.4 1.38-1.43zM-157.57-2480l-1.38 1.43-.05-.04v-2.8z"/><path d="M-182-1920h-496" stroke="#000" stroke-width="2" fill="none"/><path d="M-181-1919h-1.03v-2h1.03zM-677.97-1919H-679v-2h1.03z"/><path d="M-182-2220h-496" stroke="#000" stroke-width="2" fill="none"/><path d="M-181-2219h-1.03v-2h1.03zM-677.97-2219H-679v-2h1.03z"/><path d="M-321.96-2539.6l-456.08-140.1" stroke="#000" stroke-width="2" fill="none"/><path d="M-321-2540.36v2.1l-1.27-.4.58-1.92zM-777.73-2680.65l-.58 1.9-.7-.2v-2.1z"/><path d="M693.28-2540.38l-431.36-179.24" stroke="#000" stroke-width="2" fill="none"/><path d="M694.2-2541.08v2.16l-1.33-.55.77-1.85zM262.33-2720.53l-.77 1.85-.56-.24v-2.16z"/><path d="M853.37-2780.55l-391.54-258.9" stroke="#000" stroke-width="2" fill="none"/><path d="M854.2-2781.2v2.4l-1.4-.93 1.1-1.67zM462.4-3040.27l-1.1 1.67-.3-.2v-2.4z"/><path d="M1161.87-3041.5l-240-137" stroke="#000" stroke-width="2" fill="none"/><path d="M1164.76-3041h-3.2l.8-1.38zM922.4-3179.36l-1 1.74-.4-.23v-2.3z"/><path d="M1162.65-3042l-22.56-256" stroke="#000" stroke-width="2" fill="none"/><path d="M1163.75-3041h-2l-.1-.93 2-.18zM1141.1-3298.07l-2 .18-.1-1.1h2z"/><path d="M1058.26-3417.56l-199.52-180.77" stroke="#000" stroke-width="2" fill="none"/><path d="M1059-3418.24v2.7l-1.43-1.3 1.34-1.48zM858.1-3597.57l-1.6-1.43h2.88z"/><path d="M758.2-3237.6l-257.4-200.78" stroke="#000" stroke-width="2" fill="none"/><path d="M759-3238.26v2.54l-1.42-1.1 1.23-1.6zM500.2-3437.58l-1.83-1.42h2.93z"/><path d="M1660-3082v-296" stroke="#000" stroke-width="2" fill="none"/><path d="M1661-3081h-2v-1.03h2zM1661-3377.97h-2v-1.03h2z"/><path d="M1940.5-2981.87l179-316.26" stroke="#000" stroke-width="2" fill="none"/><path d="M1941.38-2981.4l-.23.4h-2.3l.78-1.4zM2120.37-3297.6l-1.75-1 .23-.4h2.3z"/><path d="M1524.67-1378v116" stroke="#000" stroke-width="2" fill="none"/><path d="M1525.67-1377.97h-2v-1.03h2zM1525.67-1261h-2v-1.03h2z"/><defs><path d="M30 0v-248h33v221h125V0H30" id="U"/><path d="M24-231v-30h32v30H24zM24 0v-190h32V0H24" id="V"/><path d="M210-169c-67 3-38 105-44 169h-31v-121c0-29-5-50-35-48C34-165 62-65 56 0H25l-1-190h30c1 10-1 24 2 32 10-44 99-50 107 0 11-21 27-35 58-36 85-2 47 119 55 194h-31v-121c0-29-5-49-35-48" id="W"/><path d="M115-194c53 0 69 39 70 98 0 66-23 100-70 100C84 3 66-7 56-30L54 0H23l1-261h32v101c10-23 28-34 59-34zm-8 174c40 0 45-34 45-75 0-40-5-75-45-74-42 0-51 32-51 76 0 43 10 73 51 73" id="X"/><g id="a"><use transform="matrix(0.05,0,0,0.05,0,0)" xlink:href="#U"/><use transform="matrix(0.05,0,0,0.05,10,0)" xlink:href="#V"/><use transform="matrix(0.05,0,0,0.05,13.949999999999998,0)" xlink:href="#W"/><use transform="matrix(0.05,0,0,0.05,28.899999999999995,0)" xlink:href="#X"/></g><path d="M30-248c87 1 191-15 191 75 0 78-77 80-158 76V0H30v-248zm33 125c57 0 124 11 124-50 0-59-68-47-124-48v98" id="Y"/><path d="M114-163C36-179 61-72 57 0H25l-1-190h30c1 12-1 29 2 39 6-27 23-49 58-41v29" id="Z"/><path d="M100-194c62-1 85 37 85 99 1 63-27 99-86 99S16-35 15-95c0-66 28-99 85-99zM99-20c44 1 53-31 53-75 0-43-8-75-51-75s-53 32-53 75 10 74 51 75" id="aa"/><path d="M85-194c31 0 48 13 60 33l-1-100h32l1 261h-30c-2-10 0-23-3-31C134-8 116 4 85 4 32 4 16-35 15-94c0-66 23-100 70-100zm9 24c-40 0-46 34-46 75 0 40 6 74 45 74 42 0 51-32 51-76 0-42-9-74-50-73" id="ab"/><path d="M84 4C-5 8 30-112 23-190h32v120c0 31 7 50 39 49 72-2 45-101 50-169h31l1 190h-30c-1-10 1-25-2-33-11 22-28 36-60 37" id="ac"/><path d="M96-169c-40 0-48 33-48 73s9 75 48 75c24 0 41-14 43-38l32 2c-6 37-31 61-74 61-59 0-76-41-82-99-10-93 101-131 147-64 4 7 5 14 7 22l-32 3c-4-21-16-35-41-35" id="ad"/><path d="M59-47c-2 24 18 29 38 22v24C64 9 27 4 27-40v-127H5v-23h24l9-43h21v43h35v23H59v120" id="ae"/><path d="M117-194c89-4 53 116 60 194h-32v-121c0-31-8-49-39-48C34-167 62-67 57 0H25l-1-190h30c1 10-1 24 2 32 11-22 29-35 61-36" id="af"/><g id="b"><use transform="matrix(0.05,0,0,0.05,0,0)" xlink:href="#Y"/><use transform="matrix(0.05,0,0,0.05,12,0)" xlink:href="#Z"/><use transform="matrix(0.05,0,0,0.05,17.95,0)" xlink:href="#aa"/><use transform="matrix(0.05,0,0,0.05,27.950000000000003,0)" xlink:href="#ab"/><use transform="matrix(0.05,0,0,0.05,37.95,0)" xlink:href="#ac"/><use transform="matrix(0.05,0,0,0.05,47.95,0)" xlink:href="#ad"/><use transform="matrix(0.05,0,0,0.05,56.95,0)" xlink:href="#ae"/><use transform="matrix(0.05,0,0,0.05,61.95,0)" xlink:href="#V"/><use transform="matrix(0.05,0,0,0.05,65.9,0)" xlink:href="#aa"/><use transform="matrix(0.05,0,0,0.05,75.9,0)" xlink:href="#af"/></g><path d="M100-194c63 0 86 42 84 106H49c0 40 14 67 53 68 26 1 43-12 49-29l28 8c-11 28-37 45-77 45C44 4 14-33 15-96c1-61 26-98 85-98zm52 81c6-60-76-77-97-28-3 7-6 17-6 28h103" id="ag"/><path d="M135-143c-3-34-86-38-87 0 15 53 115 12 119 90S17 21 10-45l28-5c4 36 97 45 98 0-10-56-113-15-118-90-4-57 82-63 122-42 12 7 21 19 24 35" id="ah"/><g id="c"><use transform="matrix(0.05,0,0,0.05,0,0)" xlink:href="#Y"/><use transform="matrix(0.05,0,0,0.05,12,0)" xlink:href="#Z"/><use transform="matrix(0.05,0,0,0.05,17.95,0)" xlink:href="#aa"/><use transform="matrix(0.05,0,0,0.05,27.950000000000003,0)" xlink:href="#ad"/><use transform="matrix(0.05,0,0,0.05,36.95,0)" xlink:href="#ag"/><use transform="matrix(0.05,0,0,0.05,46.95,0)" xlink:href="#ah"/><use transform="matrix(0.05,0,0,0.05,55.95,0)" xlink:href="#ah"/><use transform="matrix(0.05,0,0,0.05,64.95,0)" xlink:href="#aa"/><use transform="matrix(0.05,0,0,0.05,74.95,0)" xlink:href="#Z"/></g><path d="M185-189c-5-48-123-54-124 2 14 75 158 14 163 119 3 78-121 87-175 55-17-10-28-26-33-46l33-7c5 56 141 63 141-1 0-78-155-14-162-118-5-82 145-84 179-34 5 7 8 16 11 25" id="ai"/><path d="M143 0L79-87 56-68V0H24v-261h32v163l83-92h37l-77 82L181 0h-38" id="aj"/><g id="d"><use transform="matrix(0.05,0,0,0.05,0,0)" xlink:href="#ai"/><use transform="matrix(0.05,0,0,0.05,12,0)" xlink:href="#aj"/><use transform="matrix(0.05,0,0,0.05,21,0)" xlink:href="#V"/><use transform="matrix(0.05,0,0,0.05,24.95,0)" xlink:href="#af"/></g><path d="M106-169C34-169 62-67 57 0H25v-261h32l-1 103c12-21 28-36 61-36 89 0 53 116 60 194h-32v-121c2-32-8-49-39-48" id="ak"/><path d="M141-36C126-15 110 5 73 4 37 3 15-17 15-53c-1-64 63-63 125-63 3-35-9-54-41-54-24 1-41 7-42 31l-33-3c5-37 33-52 76-52 45 0 72 20 72 64v82c-1 20 7 32 28 27v20c-31 9-61-2-59-35zM48-53c0 20 12 33 32 33 41-3 63-29 60-74-43 2-92-5-92 41" id="al"/><path d="M115-194c55 1 70 41 70 98S169 2 115 4C84 4 66-9 55-30l1 105H24l-1-265h31l2 30c10-21 28-34 59-34zm-8 174c40 0 45-34 45-75s-6-73-45-74c-42 0-51 32-51 76 0 43 10 73 51 73" id="am"/><g id="e"><use transform="matrix(0.05,0,0,0.05,0,0)" xlink:href="#ah"/><use transform="matrix(0.05,0,0,0.05,9,0)" xlink:href="#ak"/><use transform="matrix(0.05,0,0,0.05,19,0)" xlink:href="#al"/><use transform="matrix(0.05,0,0,0.05,29,0)" xlink:href="#am"/><use transform="matrix(0.05,0,0,0.05,39,0)" xlink:href="#ag"/><use transform="matrix(0.05,0,0,0.05,49,0)" xlink:href="#Z"/></g><path d="M63-220v92h138v28H63V0H30v-248h175v28H63" id="an"/><g id="f"><use transform="matrix(0.05,0,0,0.05,0,0)" xlink:href="#an"/><use transform="matrix(0.05,0,0,0.05,10.950000000000001,0)" xlink:href="#ac"/><use transform="matrix(0.05,0,0,0.05,20.950000000000003,0)" xlink:href="#Z"/><use transform="matrix(0.05,0,0,0.05,26.900000000000002,0)" xlink:href="#af"/><use transform="matrix(0.05,0,0,0.05,36.900000000000006,0)" xlink:href="#al"/><use transform="matrix(0.05,0,0,0.05,46.900000000000006,0)" xlink:href="#ad"/><use transform="matrix(0.05,0,0,0.05,55.900000000000006,0)" xlink:href="#ag"/></g><g id="g"><use transform="matrix(0.05,0,0,0.05,0,0)" xlink:href="#ai"/><use transform="matrix(0.05,0,0,0.05,12,0)" xlink:href="#ae"/><use transform="matrix(0.05,0,0,0.05,17,0)" xlink:href="#Z"/><use transform="matrix(0.05,0,0,0.05,22.95,0)" xlink:href="#ag"/><use transform="matrix(0.05,0,0,0.05,32.95,0)" xlink:href="#ae"/><use transform="matrix(0.05,0,0,0.05,37.95,0)" xlink:href="#ad"/><use transform="matrix(0.05,0,0,0.05,46.95,0)" xlink:href="#ak"/><use transform="matrix(0.05,0,0,0.05,56.95,0)" xlink:href="#ag"/><use transform="matrix(0.05,0,0,0.05,66.95,0)" xlink:href="#Z"/></g><path d="M233-177c-1 41-23 64-60 70L243 0h-38l-65-103H63V0H30v-248c88 3 205-21 203 71zM63-129c60-2 137 13 137-47 0-61-80-42-137-45v92" id="ao"/><path d="M9 0v-24l116-142H16v-24h144v24L44-24h123V0H9" id="ap"/><g id="h"><use transform="matrix(0.05,0,0,0.05,0,0)" xlink:href="#ao"/><use transform="matrix(0.05,0,0,0.05,12.950000000000001,0)" xlink:href="#ag"/><use transform="matrix(0.05,0,0,0.05,22.950000000000003,0)" xlink:href="#ah"/><use transform="matrix(0.05,0,0,0.05,31.950000000000003,0)" xlink:href="#V"/><use transform="matrix(0.05,0,0,0.05,35.900000000000006,0)" xlink:href="#ap"/><use transform="matrix(0.05,0,0,0.05,44.900000000000006,0)" xlink:href="#ag"/><use transform="matrix(0.05,0,0,0.05,54.900000000000006,0)" xlink:href="#Z"/></g><path d="M24 0v-261h32V0H24" id="aq"/><g id="i"><use transform="matrix(0.05,0,0,0.05,0,0)" xlink:href="#ai"/><use transform="matrix(0.05,0,0,0.05,12,0)" xlink:href="#am"/><use transform="matrix(0.05,0,0,0.05,22,0)" xlink:href="#aq"/><use transform="matrix(0.05,0,0,0.05,25.950000000000003,0)" xlink:href="#V"/><use transform="matrix(0.05,0,0,0.05,29.899999999999995,0)" xlink:href="#ae"/><use transform="matrix(0.05,0,0,0.05,34.9,0)" xlink:href="#ag"/><use transform="matrix(0.05,0,0,0.05,44.9,0)" xlink:href="#Z"/></g><g id="j"><use transform="matrix(0.05,0,0,0.05,0,0)" xlink:href="#ai"/><use transform="matrix(0.05,0,0,0.05,12,0)" xlink:href="#aa"/><use transform="matrix(0.05,0,0,0.05,22,0)" xlink:href="#Z"/><use transform="matrix(0.05,0,0,0.05,27.950000000000003,0)" xlink:href="#ae"/><use transform="matrix(0.05,0,0,0.05,32.95,0)" xlink:href="#ag"/><use transform="matrix(0.05,0,0,0.05,42.95,0)" xlink:href="#Z"/></g><path d="M205 0l-28-72H64L36 0H1l101-248h38L239 0h-34zm-38-99l-47-123c-12 45-31 82-46 123h93" id="ar"/><g id="k"><use transform="matrix(0.05,0,0,0.05,0,0)" xlink:href="#ar"/><use transform="matrix(0.05,0,0,0.05,12,0)" xlink:href="#ah"/><use transform="matrix(0.05,0,0,0.05,21,0)" xlink:href="#ah"/><use transform="matrix(0.05,0,0,0.05,30,0)" xlink:href="#ag"/><use transform="matrix(0.05,0,0,0.05,40,0)" xlink:href="#W"/><use transform="matrix(0.05,0,0,0.05,54.95,0)" xlink:href="#X"/><use transform="matrix(0.05,0,0,0.05,64.95,0)" xlink:href="#aq"/><use transform="matrix(0.05,0,0,0.05,68.9,0)" xlink:href="#ag"/><use transform="matrix(0.05,0,0,0.05,78.9,0)" xlink:href="#Z"/></g><path d="M101-251c82-7 93 87 43 132L82-64C71-53 59-42 53-27h129V0H18c2-99 128-94 128-182 0-28-16-43-45-43s-46 15-49 41l-32-3c6-41 34-60 81-64" id="as"/><g id="l"><use transform="matrix(0.05,0,0,0.05,0,0)" xlink:href="#W"/><use transform="matrix(0.05,0,0,0.05,14.950000000000001,0)" xlink:href="#aj"/><use transform="matrix(0.05,0,0,0.05,23.950000000000003,0)" xlink:href="#as"/></g><path d="M126-127c33 6 58 20 58 59 0 88-139 92-164 29-3-8-5-16-6-25l32-3c6 27 21 44 54 44 32 0 52-15 52-46 0-38-36-46-79-43v-28c39 1 72-4 72-42 0-27-17-43-46-43-28 0-47 15-49 41l-32-3c6-42 35-63 81-64 48-1 79 21 79 65 0 36-21 52-52 59" id="at"/><g id="m"><use transform="matrix(0.05,0,0,0.05,0,0)" xlink:href="#W"/><use transform="matrix(0.05,0,0,0.05,14.950000000000001,0)" xlink:href="#aj"/><use transform="matrix(0.05,0,0,0.05,23.950000000000003,0)" xlink:href="#at"/></g><path d="M155-56V0h-30v-56H8v-25l114-167h33v167h35v25h-35zm-30-156c-27 46-58 90-88 131h88v-131" id="au"/><g id="n"><use transform="matrix(0.05,0,0,0.05,0,0)" xlink:href="#W"/><use transform="matrix(0.05,0,0,0.05,14.950000000000001,0)" xlink:href="#aj"/><use transform="matrix(0.05,0,0,0.05,23.950000000000003,0)" xlink:href="#au"/></g><g id="o"><use transform="matrix(0.05,0,0,0.05,0,0)" xlink:href="#am"/><use transform="matrix(0.05,0,0,0.05,10,0)" xlink:href="#Z"/><use transform="matrix(0.05,0,0,0.05,15.949999999999998,0)" xlink:href="#aa"/><use transform="matrix(0.05,0,0,0.05,25.950000000000003,0)" xlink:href="#ad"/><use transform="matrix(0.05,0,0,0.05,34.95,0)" xlink:href="#ag"/><use transform="matrix(0.05,0,0,0.05,44.95,0)" xlink:href="#ah"/><use transform="matrix(0.05,0,0,0.05,53.95,0)" xlink:href="#ah"/><use transform="matrix(0.05,0,0,0.05,62.95,0)" xlink:href="#aa"/><use transform="matrix(0.05,0,0,0.05,72.95,0)" xlink:href="#Z"/></g><g id="p"><use transform="matrix(0.05,0,0,0.05,0,0)" xlink:href="#ah"/><use transform="matrix(0.05,0,0,0.05,9,0)" xlink:href="#am"/><use transform="matrix(0.05,0,0,0.05,19,0)" xlink:href="#ag"/><use transform="matrix(0.05,0,0,0.05,29,0)" xlink:href="#ag"/><use transform="matrix(0.05,0,0,0.05,39,0)" xlink:href="#ab"/></g><path d="M108 0H70L1-190h34L89-25l56-165h34" id="av"/><g id="q"><use transform="matrix(0.05,0,0,0.05,0,0)" xlink:href="#aq"/><use transform="matrix(0.05,0,0,0.05,3.95,0)" xlink:href="#av"/><use transform="matrix(0.05,0,0,0.05,12.949999999999998,0)" xlink:href="#as"/></g><g id="r"><use transform="matrix(0.05,0,0,0.05,0,0)" xlink:href="#ah"/><use transform="matrix(0.05,0,0,0.05,9,0)" xlink:href="#ak"/><use transform="matrix(0.05,0,0,0.05,19,0)" xlink:href="#al"/><use transform="matrix(0.05,0,0,0.05,29,0)" xlink:href="#am"/><use transform="matrix(0.05,0,0,0.05,39,0)" xlink:href="#ag"/><use transform="matrix(0.05,0,0,0.05,49,0)" xlink:href="#Z"/></g><path d="M101-234c-31-9-42 10-38 44h38v23H63V0H32v-167H5v-23h27c-7-52 17-82 69-68v24" id="aw"/><path d="M179-190L93 31C79 59 56 82 12 73V49c39 6 53-20 64-50L1-190h34L92-34l54-156h33" id="ax"/><g id="s"><use transform="matrix(0.05,0,0,0.05,0,0)" xlink:href="#ag"/><use transform="matrix(0.05,0,0,0.05,10,0)" xlink:href="#aw"/><use transform="matrix(0.05,0,0,0.05,14.65,0)" xlink:href="#aw"/><use transform="matrix(0.05,0,0,0.05,19.65,0)" xlink:href="#V"/><use transform="matrix(0.05,0,0,0.05,23.599999999999998,0)" xlink:href="#ad"/><use transform="matrix(0.05,0,0,0.05,32.599999999999994,0)" xlink:href="#V"/><use transform="matrix(0.05,0,0,0.05,36.55,0)" xlink:href="#ag"/><use transform="matrix(0.05,0,0,0.05,46.55,0)" xlink:href="#af"/><use transform="matrix(0.05,0,0,0.05,56.54999999999999,0)" xlink:href="#ad"/><use transform="matrix(0.05,0,0,0.05,65.55,0)" xlink:href="#ax"/></g><g id="t"><use transform="matrix(0.05,0,0,0.05,0,0)" xlink:href="#aq"/><use transform="matrix(0.05,0,0,0.05,3.95,0)" xlink:href="#av"/><use transform="matrix(0.05,0,0,0.05,12.949999999999998,0)" xlink:href="#at"/></g><g id="u"><use transform="matrix(0.05,0,0,0.05,0,0)" xlink:href="#an"/><use transform="matrix(0.05,0,0,0.05,10.950000000000001,0)" xlink:href="#ac"/><use transform="matrix(0.05,0,0,0.05,20.950000000000003,0)" xlink:href="#Z"/><use transform="matrix(0.05,0,0,0.05,26.900000000000002,0)" xlink:href="#af"/><use transform="matrix(0.05,0,0,0.05,36.900000000000006,0)" xlink:href="#al"/><use transform="matrix(0.05,0,0,0.05,46.900000000000006,0)" xlink:href="#ad"/><use transform="matrix(0.05,0,0,0.05,55.900000000000006,0)" xlink:href="#ag"/></g><g id="v"><use transform="matrix(0.05,0,0,0.05,0,0)" xlink:href="#ah"/><use transform="matrix(0.05,0,0,0.05,9,0)" xlink:href="#am"/><use transform="matrix(0.05,0,0,0.05,19,0)" xlink:href="#ag"/><use transform="matrix(0.05,0,0,0.05,29,0)" xlink:href="#ag"/><use transform="matrix(0.05,0,0,0.05,39,0)" xlink:href="#ab"/></g><g id="w"><use transform="matrix(0.05,0,0,0.05,0,0)" xlink:href="#ao"/><use transform="matrix(0.05,0,0,0.05,12.950000000000001,0)" xlink:href="#ag"/><use transform="matrix(0.05,0,0,0.05,22.950000000000003,0)" xlink:href="#ah"/><use transform="matrix(0.05,0,0,0.05,31.950000000000003,0)" xlink:href="#V"/><use transform="matrix(0.05,0,0,0.05,35.900000000000006,0)" xlink:href="#ap"/><use transform="matrix(0.05,0,0,0.05,44.900000000000006,0)" xlink:href="#ag"/><use transform="matrix(0.05,0,0,0.05,54.900000000000006,0)" xlink:href="#Z"/></g><g id="x"><use transform="matrix(0.05,0,0,0.05,0,0)" xlink:href="#ai"/><use transform="matrix(0.05,0,0,0.05,12,0)" xlink:href="#ae"/><use transform="matrix(0.05,0,0,0.05,17,0)" xlink:href="#Z"/><use transform="matrix(0.05,0,0,0.05,22.95,0)" xlink:href="#ag"/><use transform="matrix(0.05,0,0,0.05,32.95,0)" xlink:href="#ae"/><use transform="matrix(0.05,0,0,0.05,37.95,0)" xlink:href="#ad"/><use transform="matrix(0.05,0,0,0.05,46.95,0)" xlink:href="#ak"/><use transform="matrix(0.05,0,0,0.05,56.95,0)" xlink:href="#ag"/><use transform="matrix(0.05,0,0,0.05,66.95,0)" xlink:href="#Z"/></g><g id="y"><use transform="matrix(0.05,0,0,0.05,0,0)" xlink:href="#ag"/><use transform="matrix(0.05,0,0,0.05,10,0)" xlink:href="#aw"/><use transform="matrix(0.05,0,0,0.05,14.65,0)" xlink:href="#aw"/><use transform="matrix(0.05,0,0,0.05,19.65,0)" xlink:href="#V"/><use transform="matrix(0.05,0,0,0.05,23.599999999999998,0)" xlink:href="#ad"/><use transform="matrix(0.05,0,0,0.05,32.599999999999994,0)" xlink:href="#V"/><use transform="matrix(0.05,0,0,0.05,36.55,0)" xlink:href="#ag"/><use transform="matrix(0.05,0,0,0.05,46.55,0)" xlink:href="#af"/><use transform="matrix(0.05,0,0,0.05,56.54999999999999,0)" xlink:href="#ad"/><use transform="matrix(0.05,0,0,0.05,65.55,0)" xlink:href="#ax"/></g><g id="z"><use transform="matrix(0.05,0,0,0.05,0,0)" xlink:href="#ai"/><use transform="matrix(0.05,0,0,0.05,12,0)" xlink:href="#aa"/><use transform="matrix(0.05,0,0,0.05,22,0)" xlink:href="#Z"/><use transform="matrix(0.05,0,0,0.05,27.950000000000003,0)" xlink:href="#ae"/><use transform="matrix(0.05,0,0,0.05,32.95,0)" xlink:href="#ag"/><use transform="matrix(0.05,0,0,0.05,42.95,0)" xlink:href="#Z"/></g><g id="A"><use transform="matrix(0.05,0,0,0.05,0,0)" xlink:href="#ad"/><use transform="matrix(0.05,0,0,0.05,9,0)" xlink:href="#aa"/><use transform="matrix(0.05,0,0,0.05,19,0)" xlink:href="#af"/><use transform="matrix(0.05,0,0,0.05,29,0)" xlink:href="#av"/><use transform="matrix(0.05,0,0,0.05,38,0)" xlink:href="#ag"/><use transform="matrix(0.05,0,0,0.05,48,0)" xlink:href="#ax"/><use transform="matrix(0.05,0,0,0.05,57,0)" xlink:href="#aa"/><use transform="matrix(0.05,0,0,0.05,67,0)" xlink:href="#Z"/></g><g id="B"><use transform="matrix(0.05,0,0,0.05,0,0)" xlink:href="#X"/><use transform="matrix(0.05,0,0,0.05,10,0)" xlink:href="#ag"/><use transform="matrix(0.05,0,0,0.05,20,0)" xlink:href="#aq"/><use transform="matrix(0.05,0,0,0.05,23.95,0)" xlink:href="#ae"/></g><g id="C"><use transform="matrix(0.05,0,0,0.05,0,0)" xlink:href="#ai"/><use transform="matrix(0.05,0,0,0.05,12,0)" xlink:href="#am"/><use transform="matrix(0.05,0,0,0.05,22,0)" xlink:href="#aq"/><use transform="matrix(0.05,0,0,0.05,25.950000000000003,0)" xlink:href="#V"/><use transform="matrix(0.05,0,0,0.05,29.899999999999995,0)" xlink:href="#ae"/><use transform="matrix(0.05,0,0,0.05,34.9,0)" xlink:href="#ag"/><use transform="matrix(0.05,0,0,0.05,44.9,0)" xlink:href="#Z"/></g><g id="D"><use transform="matrix(0.05,0,0,0.05,0,0)" xlink:href="#ah"/><use transform="matrix(0.05,0,0,0.05,9,0)" xlink:href="#am"/><use transform="matrix(0.05,0,0,0.05,19,0)" xlink:href="#aq"/><use transform="matrix(0.05,0,0,0.05,22.95,0)" xlink:href="#V"/><use transform="matrix(0.05,0,0,0.05,26.899999999999995,0)" xlink:href="#ae"/><use transform="matrix(0.05,0,0,0.05,31.899999999999995,0)" xlink:href="#ag"/><use transform="matrix(0.05,0,0,0.05,41.9,0)" xlink:href="#Z"/></g><path d="M177-190C167-65 218 103 67 71c-23-6-38-20-44-43l32-5c15 47 100 32 89-28v-30C133-14 115 1 83 1 29 1 15-40 15-95c0-56 16-97 71-98 29-1 48 16 59 35 1-10 0-23 2-32h30zM94-22c36 0 50-32 50-73 0-42-14-75-50-75-39 0-46 34-46 75s6 73 46 73" id="ay"/><g id="E"><use transform="matrix(0.05,0,0,0.05,0,0)" xlink:href="#ai"/><use transform="matrix(0.05,0,0,0.05,12,0)" xlink:href="#ak"/><use transform="matrix(0.05,0,0,0.05,22,0)" xlink:href="#V"/><use transform="matrix(0.05,0,0,0.05,25.950000000000003,0)" xlink:href="#am"/><use transform="matrix(0.05,0,0,0.05,35.95,0)" xlink:href="#am"/><use transform="matrix(0.05,0,0,0.05,45.95,0)" xlink:href="#V"/><use transform="matrix(0.05,0,0,0.05,49.900000000000006,0)" xlink:href="#af"/><use transform="matrix(0.05,0,0,0.05,59.900000000000006,0)" xlink:href="#ay"/></g><g id="F"><use transform="matrix(0.05,0,0,0.05,0,0)" xlink:href="#am"/><use transform="matrix(0.05,0,0,0.05,10,0)" xlink:href="#Z"/><use transform="matrix(0.05,0,0,0.05,15.949999999999998,0)" xlink:href="#aa"/><use transform="matrix(0.05,0,0,0.05,25.950000000000003,0)" xlink:href="#ad"/><use transform="matrix(0.05,0,0,0.05,34.95,0)" xlink:href="#ag"/><use transform="matrix(0.05,0,0,0.05,44.95,0)" xlink:href="#ah"/><use transform="matrix(0.05,0,0,0.05,53.95,0)" xlink:href="#ah"/><use transform="matrix(0.05,0,0,0.05,62.95,0)" xlink:href="#aa"/><use transform="matrix(0.05,0,0,0.05,72.95,0)" xlink:href="#Z"/></g><g id="G"><use transform="matrix(0.05,0,0,0.05,0,0)" xlink:href="#ai"/><use transform="matrix(0.05,0,0,0.05,12,0)" xlink:href="#ae"/><use transform="matrix(0.05,0,0,0.05,17,0)" xlink:href="#Z"/><use transform="matrix(0.05,0,0,0.05,22.95,0)" xlink:href="#ag"/><use transform="matrix(0.05,0,0,0.05,32.95,0)" xlink:href="#ae"/><use transform="matrix(0.05,0,0,0.05,37.95,0)" xlink:href="#ad"/><use transform="matrix(0.05,0,0,0.05,46.95,0)" xlink:href="#ak"/><use transform="matrix(0.05,0,0,0.05,56.95,0)" xlink:href="#ag"/><use transform="matrix(0.05,0,0,0.05,66.95,0)" xlink:href="#Z"/></g><g id="H"><use transform="matrix(0.05,0,0,0.05,0,0)" xlink:href="#ar"/><use transform="matrix(0.05,0,0,0.05,12,0)" xlink:href="#ah"/><use transform="matrix(0.05,0,0,0.05,21,0)" xlink:href="#ah"/><use transform="matrix(0.05,0,0,0.05,30,0)" xlink:href="#ag"/><use transform="matrix(0.05,0,0,0.05,40,0)" xlink:href="#W"/><use transform="matrix(0.05,0,0,0.05,54.95,0)" xlink:href="#X"/><use transform="matrix(0.05,0,0,0.05,64.95,0)" xlink:href="#aq"/><use transform="matrix(0.05,0,0,0.05,68.9,0)" xlink:href="#ag"/><use transform="matrix(0.05,0,0,0.05,78.9,0)" xlink:href="#Z"/></g><g id="I"><use transform="matrix(0.05,0,0,0.05,0,0)" xlink:href="#ag"/><use transform="matrix(0.05,0,0,0.05,10,0)" xlink:href="#aw"/><use transform="matrix(0.05,0,0,0.05,14.65,0)" xlink:href="#aw"/><use transform="matrix(0.05,0,0,0.05,19.65,0)" xlink:href="#V"/><use transform="matrix(0.05,0,0,0.05,23.599999999999998,0)" xlink:href="#ad"/><use transform="matrix(0.05,0,0,0.05,32.599999999999994,0)" xlink:href="#V"/><use transform="matrix(0.05,0,0,0.05,36.55,0)" xlink:href="#af"/><use transform="matrix(0.05,0,0,0.05,46.55,0)" xlink:href="#ad"/><use transform="matrix(0.05,0,0,0.05,55.54999999999999,0)" xlink:href="#ax"/></g><g id="J"><use transform="matrix(0.05,0,0,0.05,0,0)" xlink:href="#ai"/><use transform="matrix(0.05,0,0,0.05,12,0)" xlink:href="#ak"/><use transform="matrix(0.05,0,0,0.05,22,0)" xlink:href="#V"/><use transform="matrix(0.05,0,0,0.05,25.950000000000003,0)" xlink:href="#am"/><use transform="matrix(0.05,0,0,0.05,35.95,0)" xlink:href="#am"/><use transform="matrix(0.05,0,0,0.05,45.95,0)" xlink:href="#V"/><use transform="matrix(0.05,0,0,0.05,49.900000000000006,0)" xlink:href="#af"/><use transform="matrix(0.05,0,0,0.05,59.900000000000006,0)" xlink:href="#ay"/></g><g id="K"><use transform="matrix(0.05,0,0,0.05,0,0)" xlink:href="#ad"/><use transform="matrix(0.05,0,0,0.05,9,0)" xlink:href="#aa"/><use transform="matrix(0.05,0,0,0.05,19,0)" xlink:href="#af"/><use transform="matrix(0.05,0,0,0.05,29,0)" xlink:href="#av"/><use transform="matrix(0.05,0,0,0.05,38,0)" xlink:href="#ag"/><use transform="matrix(0.05,0,0,0.05,48,0)" xlink:href="#ax"/><use transform="matrix(0.05,0,0,0.05,57,0)" xlink:href="#aa"/><use transform="matrix(0.05,0,0,0.05,67,0)" xlink:href="#Z"/></g><g id="L"><use transform="matrix(0.05,0,0,0.05,0,0)" xlink:href="#ag"/><use transform="matrix(0.05,0,0,0.05,10,0)" xlink:href="#aw"/><use transform="matrix(0.05,0,0,0.05,14.65,0)" xlink:href="#aw"/><use transform="matrix(0.05,0,0,0.05,19.3,0)" xlink:href="#aw"/><use transform="matrix(0.05,0,0,0.05,24.3,0)" xlink:href="#V"/><use transform="matrix(0.05,0,0,0.05,28.25,0)" xlink:href="#ad"/><use transform="matrix(0.05,0,0,0.05,37.25,0)" xlink:href="#V"/><use transform="matrix(0.05,0,0,0.05,41.2,0)" xlink:href="#ag"/><use transform="matrix(0.05,0,0,0.05,51.2,0)" xlink:href="#af"/><use transform="matrix(0.05,0,0,0.05,61.2,0)" xlink:href="#ad"/><use transform="matrix(0.05,0,0,0.05,70.2,0)" xlink:href="#ax"/></g><g id="M"><use transform="matrix(0.05,0,0,0.05,0,0)" xlink:href="#ai"/><use transform="matrix(0.05,0,0,0.05,12,0)" xlink:href="#ak"/><use transform="matrix(0.05,0,0,0.05,22,0)" xlink:href="#V"/><use transform="matrix(0.05,0,0,0.05,25.950000000000003,0)" xlink:href="#am"/><use transform="matrix(0.05,0,0,0.05,35.95,0)" xlink:href="#am"/><use transform="matrix(0.05,0,0,0.05,45.95,0)" xlink:href="#V"/><use transform="matrix(0.05,0,0,0.05,49.900000000000006,0)" xlink:href="#af"/><use transform="matrix(0.05,0,0,0.05,59.900000000000006,0)" xlink:href="#ay"/></g><g id="N"><use transform="matrix(0.05,0,0,0.05,0,0)" xlink:href="#Y"/><use transform="matrix(0.05,0,0,0.05,12,0)" xlink:href="#Z"/><use transform="matrix(0.05,0,0,0.05,17.95,0)" xlink:href="#aa"/><use transform="matrix(0.05,0,0,0.05,27.950000000000003,0)" xlink:href="#ab"/><use transform="matrix(0.05,0,0,0.05,37.95,0)" xlink:href="#ac"/><use transform="matrix(0.05,0,0,0.05,47.95,0)" xlink:href="#ad"/><use transform="matrix(0.05,0,0,0.05,56.95,0)" xlink:href="#ae"/><use transform="matrix(0.05,0,0,0.05,61.95,0)" xlink:href="#V"/><use transform="matrix(0.05,0,0,0.05,65.9,0)" xlink:href="#aa"/><use transform="matrix(0.05,0,0,0.05,75.9,0)" xlink:href="#af"/></g><g id="O"><use transform="matrix(0.05,0,0,0.05,0,0)" xlink:href="#aq"/><use transform="matrix(0.05,0,0,0.05,3.95,0)" xlink:href="#av"/></g><use transform="matrix(0.05,0,0,0.05,0,0)" xlink:href="#at" id="P"/><g id="Q"><use transform="matrix(0.05,0,0,0.05,0,0)" xlink:href="#W"/><use transform="matrix(0.05,0,0,0.05,14.950000000000001,0)" xlink:href="#aj"/></g><use transform="matrix(0.05,0,0,0.05,0,0)" xlink:href="#as" id="R"/><g id="S"><use transform="matrix(0.05,0,0,0.05,0,0)" xlink:href="#ai"/><use transform="matrix(0.05,0,0,0.05,12,0)" xlink:href="#ag"/><use transform="matrix(0.05,0,0,0.05,22,0)" xlink:href="#af"/><use transform="matrix(0.05,0,0,0.05,32,0)" xlink:href="#ah"/><use transform="matrix(0.05,0,0,0.05,41,0)" xlink:href="#aa"/><use transform="matrix(0.05,0,0,0.05,51,0)" xlink:href="#Z"/><use transform="matrix(0.05,0,0,0.05,56.95,0)" xlink:href="#ax"/></g><g id="T"><use transform="matrix(0.05,0,0,0.05,0,0)" xlink:href="#Y"/><use transform="matrix(0.05,0,0,0.05,12,0)" xlink:href="#Z"/><use transform="matrix(0.05,0,0,0.05,17.95,0)" xlink:href="#aa"/><use transform="matrix(0.05,0,0,0.05,27.950000000000003,0)" xlink:href="#ab"/><use transform="matrix(0.05,0,0,0.05,37.95,0)" xlink:href="#ac"/><use transform="matrix(0.05,0,0,0.05,47.95,0)" xlink:href="#ad"/><use transform="matrix(0.05,0,0,0.05,56.95,0)" xlink:href="#ae"/><use transform="matrix(0.05,0,0,0.05,61.95,0)" xlink:href="#V"/><use transform="matrix(0.05,0,0,0.05,65.9,0)" xlink:href="#aa"/><use transform="matrix(0.05,0,0,0.05,75.9,0)" xlink:href="#af"/></g></defs></g></svg>