<svg xmlns="http://www.w3.org/2000/svg" xmlns:xlink="http://www.w3.org/1999/xlink" xmlns:lucid="lucid" width="5080" height="3340"><g transform="translate(900 3900)" lucid:page-tab-id="0_0"><path d="M2310-2225c0 439.07-355.93 795-795 795s-795-355.93-795-795 355.93-795 795-795 795 355.93 795 795z" stroke="#000" stroke-width="2" fill-opacity="0"/><path d="M1360-1480h160v120h-160z" stroke="#000" stroke-width="2" fill="#fff"/><use xlink:href="#a" transform="matrix(1,0,0,1,1365,-1475) translate(34.55 59.0875)"/><path d="M1710.4-1540h160v120h-160z" stroke="#000" stroke-width="2" fill="#fff"/><use xlink:href="#b" transform="matrix(1,0,0,1,1715.3999999999999,-1535) translate(47.525 59.0875)"/><path d="M1000-1620h160v120h-160z" stroke="#000" stroke-width="2" fill="#fff"/><use xlink:href="#c" transform="matrix(1,0,0,1,1005,-1615) translate(42.05 59.0875)"/><path d="M2220-2300h160v120h-160z" stroke="#000" stroke-width="2" fill="#fff"/><use xlink:href="#d" transform="matrix(1,0,0,1,2225,-2295) translate(50.55 59.0875)"/><path d="M2240-3000h160v120h-160z" stroke="#000" stroke-width="2" fill="#fff"/><use xlink:href="#e" transform="matrix(1,0,0,1,2245,-2995) translate(13.099999999999994 59.0875)"/><use xlink:href="#f" transform="matrix(1,0,0,1,2245,-2995) translate(102.95 59.0875)"/><path d="M3090-3240h160v120h-160z" stroke="#000" stroke-width="2" fill="#fff"/><use xlink:href="#e" transform="matrix(1,0,0,1,3095,-3235) translate(13.099999999999994 59.0875)"/><use xlink:href="#g" transform="matrix(1,0,0,1,3095,-3235) translate(102.95 59.0875)"/><path d="M4000-3380h160v120h-160z" stroke="#000" stroke-width="2" fill="#fff"/><use xlink:href="#e" transform="matrix(1,0,0,1,4005,-3375) translate(13.099999999999994 59.0875)"/><use xlink:href="#h" transform="matrix(1,0,0,1,4005,-3375) translate(102.95 59.0875)"/><path d="M2020-1280h160v120h-160z" stroke="#000" stroke-width="2" fill="#fff"/><use xlink:href="#i" transform="matrix(1,0,0,1,2025,-1275) translate(7.75 48.775)"/><use xlink:href="#j" transform="matrix(1,0,0,1,2025,-1275) translate(67.7 48.775)"/><use xlink:href="#k" transform="matrix(1,0,0,1,2025,-1275) translate(63.525 70.375)"/><path d="M2340-920h160v120h-160z" stroke="#000" stroke-width="2" fill="#fff"/><use xlink:href="#i" transform="matrix(1,0,0,1,2345,-915) translate(7.75 48.775)"/><use xlink:href="#j" transform="matrix(1,0,0,1,2345,-915) translate(67.7 48.775)"/><use xlink:href="#l" transform="matrix(1,0,0,1,2345,-915) translate(63.525 70.375)"/><path d="M2500-1560h160v120h-160z" stroke="#000" stroke-width="2" fill="#fff"/><use xlink:href="#m" transform="matrix(1,0,0,1,2505,-1555) translate(38.55 48.775)"/><use xlink:href="#n" transform="matrix(1,0,0,1,2505,-1555) translate(23.75 70.375)"/><use xlink:href="#k" transform="matrix(1,0,0,1,2505,-1555) translate(103.3 70.375)"/><path d="M3020-1400h160v120h-160z" stroke="#000" stroke-width="2" fill="#fff"/><use xlink:href="#m" transform="matrix(1,0,0,1,3025,-1395) translate(38.55 48.775)"/><use xlink:href="#n" transform="matrix(1,0,0,1,3025,-1395) translate(23.75 70.375)"/><use xlink:href="#l" transform="matrix(1,0,0,1,3025,-1395) translate(103.3 70.375)"/><path d="M3120-2200h160v120h-160z" stroke="#000" stroke-width="2" fill="#fff"/><use xlink:href="#o" transform="matrix(1,0,0,1,3125,-2195) translate(31.074999999999996 59.0875)"/><use xlink:href="#f" transform="matrix(1,0,0,1,3125,-2195) translate(84.975 59.0875)"/><path d="M3120-1760h160v120h-160z" stroke="#000" stroke-width="2" fill="#fff"/><use xlink:href="#p" transform="matrix(1,0,0,1,3125,-1755) translate(21.549999999999997 48.775)"/><use xlink:href="#q" transform="matrix(1,0,0,1,3125,-1755) translate(99.5 48.775)"/><use xlink:href="#f" transform="matrix(1,0,0,1,3125,-1755) translate(58.025 70.375)"/><path d="M1040-3340h160v120h-160z" stroke="#000" stroke-width="2" fill="#fff"/><use xlink:href="#r" transform="matrix(1,0,0,1,1045,-3335) translate(30.099999999999994 59.0875)"/><use xlink:href="#f" transform="matrix(1,0,0,1,1045,-3335) translate(85.94999999999999 59.0875)"/><path d="M1360-1100h160v120h-160z" stroke="#000" stroke-width="2" fill="#fff"/><use xlink:href="#s" transform="matrix(1,0,0,1,1365,-1095) translate(35.55 48.775)"/><use xlink:href="#n" transform="matrix(1,0,0,1,1365,-1095) translate(23.75 70.375)"/><use xlink:href="#k" transform="matrix(1,0,0,1,1365,-1095) translate(103.3 70.375)"/><path d="M1360-700h160v120h-160z" stroke="#000" stroke-width="2" fill="#fff"/><use xlink:href="#s" transform="matrix(1,0,0,1,1365,-695) translate(35.55 48.775)"/><use xlink:href="#n" transform="matrix(1,0,0,1,1365,-695) translate(23.75 70.375)"/><use xlink:href="#l" transform="matrix(1,0,0,1,1365,-695) translate(103.3 70.375)"/><path d="M680-1280h160v120H680z" stroke="#000" stroke-width="2" fill="#fff"/><use xlink:href="#t" transform="matrix(1,0,0,1,685,-1275) translate(2.2750000000000057 48.775)"/><use xlink:href="#j" transform="matrix(1,0,0,1,685,-1275) translate(73.17500000000001 48.775)"/><use xlink:href="#k" transform="matrix(1,0,0,1,685,-1275) translate(63.525 70.375)"/><path d="M360-980h160v120H360z" stroke="#000" stroke-width="2" fill="#fff"/><use xlink:href="#t" transform="matrix(1,0,0,1,365,-975) translate(2.2750000000000057 48.775)"/><use xlink:href="#j" transform="matrix(1,0,0,1,365,-975) translate(73.17500000000001 48.775)"/><use xlink:href="#l" transform="matrix(1,0,0,1,365,-975) translate(63.525 70.375)"/><path d="M2580-3260h160v120h-160z" stroke="#000" stroke-width="2" fill="#fff"/><use xlink:href="#e" transform="matrix(1,0,0,1,2585,-3255) translate(5.574999999999989 48.775)"/><use xlink:href="#u" transform="matrix(1,0,0,1,2585,-3255) translate(95.425 48.775)"/><use xlink:href="#k" transform="matrix(1,0,0,1,2585,-3255) translate(63.525 70.375)"/><path d="M2700-2900h160v120h-160z" stroke="#000" stroke-width="2" fill="#fff"/><use xlink:href="#v" transform="matrix(1,0,0,1,2705,-2895) translate(32.574999999999996 48.775)"/><use xlink:href="#w" transform="matrix(1,0,0,1,2705,-2895) translate(28.75 70.375)"/><use xlink:href="#k" transform="matrix(1,0,0,1,2705,-2895) translate(98.3 70.375)"/><path d="M3520-3520h160v120h-160z" stroke="#000" stroke-width="2" fill="#fff"/><use xlink:href="#e" transform="matrix(1,0,0,1,3525,-3515) translate(5.574999999999989 48.775)"/><use xlink:href="#u" transform="matrix(1,0,0,1,3525,-3515) translate(95.425 48.775)"/><use xlink:href="#l" transform="matrix(1,0,0,1,3525,-3515) translate(63.525 70.375)"/><path d="M3600-3120h160v120h-160z" stroke="#000" stroke-width="2" fill="#fff"/><use xlink:href="#v" transform="matrix(1,0,0,1,3605,-3115) translate(32.574999999999996 48.775)"/><use xlink:href="#n" transform="matrix(1,0,0,1,3605,-3115) translate(23.75 70.375)"/><use xlink:href="#l" transform="matrix(1,0,0,1,3605,-3115) translate(103.3 70.375)"/><path d="M2580-1900h160v120h-160z" stroke="#000" stroke-width="2" fill="#fff"/><use xlink:href="#x" transform="matrix(1,0,0,1,2585,-1895) translate(38.525 48.775)"/><use xlink:href="#n" transform="matrix(1,0,0,1,2585,-1895) translate(23.75 70.375)"/><use xlink:href="#k" transform="matrix(1,0,0,1,2585,-1895) translate(103.3 70.375)"/><path d="M2640-2260h160v120h-160z" stroke="#000" stroke-width="2" fill="#fff"/><use xlink:href="#o" transform="matrix(1,0,0,1,2645,-2255) translate(10.775000000000006 48.775)"/><use xlink:href="#j" transform="matrix(1,0,0,1,2645,-2255) translate(64.67500000000001 48.775)"/><use xlink:href="#k" transform="matrix(1,0,0,1,2645,-2255) translate(63.525 70.375)"/><path d="M920-3600h160v120H920z" stroke="#000" stroke-width="2" fill="#fff"/><use xlink:href="#r" transform="matrix(1,0,0,1,925,-3595) translate(7.474999999999994 48.775)"/><use xlink:href="#y" transform="matrix(1,0,0,1,925,-3595) translate(63.324999999999996 48.775)"/><use xlink:href="#k" transform="matrix(1,0,0,1,925,-3595) translate(63.525 70.375)"/><path d="M760-3880h160v120H760z" stroke="#000" stroke-width="2" fill="#fff"/><use xlink:href="#z" transform="matrix(1,0,0,1,765,-3875) translate(11.299999999999997 48.775)"/><use xlink:href="#j" transform="matrix(1,0,0,1,765,-3875) translate(64.15 48.775)"/><use xlink:href="#l" transform="matrix(1,0,0,1,765,-3875) translate(63.525 70.375)"/><path d="M1840-3320h160v120h-160z" stroke="#000" stroke-width="2" fill="#fff"/><use xlink:href="#A" transform="matrix(1,0,0,1,1845,-3315) translate(0.2750000000000057 48.775)"/><use xlink:href="#j" transform="matrix(1,0,0,1,1845,-3315) translate(75.17500000000001 48.775)"/><use xlink:href="#k" transform="matrix(1,0,0,1,1845,-3315) translate(63.525 70.375)"/><path d="M2000-3620h160v120h-160z" stroke="#000" stroke-width="2" fill="#fff"/><use xlink:href="#B" transform="matrix(1,0,0,1,2005,-3615) translate(40.05 48.775)"/><use xlink:href="#n" transform="matrix(1,0,0,1,2005,-3615) translate(23.75 70.375)"/><use xlink:href="#l" transform="matrix(1,0,0,1,2005,-3615) translate(103.3 70.375)"/><path d="M540-3100h160v120H540z" stroke="#000" stroke-width="2" fill="#fff"/><use xlink:href="#C" transform="matrix(1,0,0,1,545,-3095) translate(12.074999999999996 48.775)"/><use xlink:href="#D" transform="matrix(1,0,0,1,545,-3095) translate(52.025 48.775)"/><use xlink:href="#E" transform="matrix(1,0,0,1,545,-3095) translate(36.525 70.375)"/><use xlink:href="#k" transform="matrix(1,0,0,1,545,-3095) translate(90.525 70.375)"/><path d="M180-3420h160v120H180z" stroke="#000" stroke-width="2" fill="#fff"/><use xlink:href="#C" transform="matrix(1,0,0,1,185,-3415) translate(12.074999999999996 48.775)"/><use xlink:href="#D" transform="matrix(1,0,0,1,185,-3415) translate(52.025 48.775)"/><use xlink:href="#E" transform="matrix(1,0,0,1,185,-3415) translate(34.025 70.375)"/><use xlink:href="#F" transform="matrix(1,0,0,1,185,-3415) translate(88.025 70.375)"/><use xlink:href="#G" transform="matrix(1,0,0,1,185,-3415) translate(105.975 70.375)"/><path d="M370-1760h160v120H370z" stroke="#000" stroke-width="2" fill="#fff"/><use xlink:href="#H" transform="matrix(1,0,0,1,375,-1755) translate(10.099999999999994 48.775)"/><use xlink:href="#D" transform="matrix(1,0,0,1,375,-1755) translate(53.99999999999999 48.775)"/><use xlink:href="#I" transform="matrix(1,0,0,1,375,-1755) translate(55.525 70.375)"/><use xlink:href="#J" transform="matrix(1,0,0,1,375,-1755) translate(84.475 70.375)"/><path d="M280-2360h160v120H280z" stroke="#000" stroke-width="2" fill="#fff"/><use xlink:href="#K" transform="matrix(1,0,0,1,285,-2355) translate(42.025 48.775)"/><use xlink:href="#L" transform="matrix(1,0,0,1,285,-2355) translate(32.05 70.375)"/><path d="M800-2750h160v120H800z" stroke="#000" stroke-width="2" fill="#fff"/><use xlink:href="#C" transform="matrix(1,0,0,1,805,-2745) translate(12.074999999999996 59.0875)"/><use xlink:href="#L" transform="matrix(1,0,0,1,805,-2745) translate(52.025 59.0875)"/><path d="M200-2800h160v120H200z" stroke="#000" stroke-width="2" fill="#fff"/><use xlink:href="#C" transform="matrix(1,0,0,1,205,-2795) translate(12.074999999999996 48.775)"/><use xlink:href="#D" transform="matrix(1,0,0,1,205,-2795) translate(52.025 48.775)"/><use xlink:href="#n" transform="matrix(1,0,0,1,205,-2795) translate(21.25 70.375)"/><use xlink:href="#F" transform="matrix(1,0,0,1,205,-2795) translate(100.8 70.375)"/><use xlink:href="#J" transform="matrix(1,0,0,1,205,-2795) translate(118.75 70.375)"/><path d="M-180-2580h160v120h-160z" stroke="#000" stroke-width="2" fill="#fff"/><use xlink:href="#K" transform="matrix(1,0,0,1,-175,-2575) translate(42.025 38.4625)"/><use xlink:href="#M" transform="matrix(1,0,0,1,-175,-2575) translate(5.049999999999997 60.0625)"/><use xlink:href="#u" transform="matrix(1,0,0,1,-175,-2575) translate(95.95 60.0625)"/><use xlink:href="#k" transform="matrix(1,0,0,1,-175,-2575) translate(63.525 81.66250000000001)"/><path d="M-180-2220h160v120h-160z" stroke="#000" stroke-width="2" fill="#fff"/><use xlink:href="#K" transform="matrix(1,0,0,1,-175,-2215) translate(42.025 38.4625)"/><use xlink:href="#D" transform="matrix(1,0,0,1,-175,-2215) translate(32.05 60.0625)"/><use xlink:href="#n" transform="matrix(1,0,0,1,-175,-2215) translate(23.75 81.66250000000001)"/><use xlink:href="#k" transform="matrix(1,0,0,1,-175,-2215) translate(103.3 81.66250000000001)"/><path d="M-260-1860h160v120h-160z" stroke="#000" stroke-width="2" fill="#fff"/><use xlink:href="#H" transform="matrix(1,0,0,1,-255,-1855) translate(10.099999999999994 48.775)"/><use xlink:href="#D" transform="matrix(1,0,0,1,-255,-1855) translate(53.99999999999999 48.775)"/><use xlink:href="#E" transform="matrix(1,0,0,1,-255,-1855) translate(36.525 70.375)"/><use xlink:href="#k" transform="matrix(1,0,0,1,-255,-1855) translate(90.525 70.375)"/><path d="M-220-1500h160v120h-160z" stroke="#000" stroke-width="2" fill="#fff"/><use xlink:href="#H" transform="matrix(1,0,0,1,-215,-1495) translate(10.099999999999994 48.775)"/><use xlink:href="#D" transform="matrix(1,0,0,1,-215,-1495) translate(53.99999999999999 48.775)"/><use xlink:href="#n" transform="matrix(1,0,0,1,-215,-1495) translate(23.75 70.375)"/><use xlink:href="#k" transform="matrix(1,0,0,1,-215,-1495) translate(103.3 70.375)"/><path d="M-680-2740h160v120h-160z" stroke="#000" stroke-width="2" fill="#fff"/><use xlink:href="#K" transform="matrix(1,0,0,1,-675,-2735) translate(42.025 38.4625)"/><use xlink:href="#M" transform="matrix(1,0,0,1,-675,-2735) translate(5.049999999999997 60.0625)"/><use xlink:href="#u" transform="matrix(1,0,0,1,-675,-2735) translate(95.95 60.0625)"/><use xlink:href="#l" transform="matrix(1,0,0,1,-675,-2735) translate(63.525 81.66250000000001)"/><path d="M-840-2280h160v120h-160z" stroke="#000" stroke-width="2" fill="#fff"/><use xlink:href="#K" transform="matrix(1,0,0,1,-835,-2275) translate(42.025 38.4625)"/><use xlink:href="#D" transform="matrix(1,0,0,1,-835,-2275) translate(32.05 60.0625)"/><use xlink:href="#n" transform="matrix(1,0,0,1,-835,-2275) translate(23.75 81.66250000000001)"/><use xlink:href="#l" transform="matrix(1,0,0,1,-835,-2275) translate(103.3 81.66250000000001)"/><path d="M-800-1220h160v120h-160z" stroke="#000" stroke-width="2" fill="#fff"/><use xlink:href="#H" transform="matrix(1,0,0,1,-795,-1215) translate(10.099999999999994 48.775)"/><use xlink:href="#D" transform="matrix(1,0,0,1,-795,-1215) translate(53.99999999999999 48.775)"/><use xlink:href="#n" transform="matrix(1,0,0,1,-795,-1215) translate(23.75 70.375)"/><use xlink:href="#l" transform="matrix(1,0,0,1,-795,-1215) translate(103.3 70.375)"/><path d="M-880-1900h160v120h-160z" stroke="#000" stroke-width="2" fill="#fff"/><use xlink:href="#H" transform="matrix(1,0,0,1,-875,-1895) translate(10.099999999999994 48.775)"/><use xlink:href="#D" transform="matrix(1,0,0,1,-875,-1895) translate(53.99999999999999 48.775)"/><use xlink:href="#E" transform="matrix(1,0,0,1,-875,-1895) translate(36.525 70.375)"/><use xlink:href="#k" transform="matrix(1,0,0,1,-875,-1895) translate(90.525 70.375)"/><path d="M1440-702v-276" stroke="#000" stroke-width="2" fill="none"/><path d="M1441-701h-2v-1.03h2zM1441-977.97h-2V-979h2z"/><path d="M2141.93-1639.64l356.14 139.28" stroke="#000" stroke-width="2" fill="none"/><path d="M2142.32-1640.56l-.73 1.86-.6-.23v-2.14zM2499-1501.07v2.14l-1.32-.5.73-1.87z"/><path d="M2382-2239.85l256 39.7" stroke="#000" stroke-width="2" fill="none"/><path d="M2382.17-2240.83l-.3 1.98-.87-.14v-2zM2639-2201v2l-1.17-.17.3-1.98z"/><path d="M2801.98-2199.8l316.04 59.6" stroke="#000" stroke-width="2" fill="none"/><path d="M2802.2-2200.8l-.38 1.97-.82-.15v-2.04zM3119-2141.02v2.04l-1.2-.23.38-1.97z"/><path d="M2401.95-2939.68l296.1 99.36" stroke="#000" stroke-width="2" fill="none"/><path d="M2402.3-2940.62l-.65 1.9-.65-.23v-2.1zM2699-2841.05v2.1l-1.3-.43.65-1.9z"/><path d="M2401.56-2940.83l176.88-258.34" stroke="#000" stroke-width="2" fill="none"/><path d="M2402.4-2940.28l-1.4 2.05v-3zM2579-3198.76l-1.4-.96 1.4-2.05z"/><path d="M2861.56-2840.83l226.88-338.34" stroke="#000" stroke-width="2" fill="none"/><path d="M2862.4-2840.3l-1.4 2.1v-3.03zM3089-3178.77l-1.4-.94 1.4-2.1z"/><path d="M2742-3199.94l346 19.88" stroke="#000" stroke-width="2" fill="none"/><path d="M2742.08-3200.94l-.1 2-.98-.06v-2zM3089-3181v2l-1.08-.06.1-2z"/><path d="M3251.7-3180.72l266.6-278.56" stroke="#000" stroke-width="2" fill="none"/><path d="M3252.43-3180.05l-1.43 1.5v-2.87zM3519-3458.58l-1.43-1.37 1.43-1.5z"/><path d="M3251.95-3179.67l346.1 119.34" stroke="#000" stroke-width="2" fill="none"/><path d="M3252.3-3180.6l-.66 1.88-.64-.22v-2.12zM3599-3061.06v2.12l-1.3-.45.66-1.88z"/><path d="M3761.68-3060.74l236.64-258.52" stroke="#000" stroke-width="2" fill="none"/><path d="M3762.43-3060.08l-1.43 1.56v-2.87zM3999-3318.6l-1.43-1.32 1.43-1.56z"/><path d="M3681.9-3459.6l316.2 141.86" stroke="#000" stroke-width="2" fill="none"/><path d="M3682.35-3460.5l-.82 1.83-.53-.23v-2.2zM3999-3318.43v2.2l-1.35-.6.82-1.84z"/><path d="M368.02-1700.2l-466.04-99.6" stroke="#000" stroke-width="2" fill="none"/><path d="M369-1701.02v2.04l-1.2-.26.4-1.95zM-97.8-1800.76l-.4 1.95-.8-.18v-2.04z"/><path d="M-221.9-1378.54l-416.2 218.08" stroke="#000" stroke-width="2" fill="none"/><path d="M-221-1379h2.15l-2.6 1.36-.92-1.77 1.37-.73zM-637.63-1159.6l-1.37.73v-2.26l.44-.23z"/><path d="M368.15-1699.48l-426.3 258.96" stroke="#000" stroke-width="2" fill="none"/><path d="M369-1698.83l-.36.22-1.04-1.72 1.4-.85zM-57.6-1439.68l-1.4.85v-2.34l.36-.22z"/><path d="M-262-1800.1l-456-39.8" stroke="#000" stroke-width="2" fill="none"/><path d="M-261-1801v2l-1.1-.1.17-2zM-717.9-1840.9l-.17 2-.93-.1v-2z"/><path d="M-182-2160.12l-496-59.76" stroke="#000" stroke-width="2" fill="none"/><path d="M-181-2161v2l-1.14-.13.24-2zM-677.86-2220.87l-.24 2-.9-.12v-2z"/><path d="M-181.96-2579.6l-336.08-100.1" stroke="#000" stroke-width="2" fill="none"/><path d="M-181-2580.36v2.1l-1.27-.4.57-1.9zM-517.73-2680.67l-.57 1.92-.7-.2v-2.1z"/><path d="M798-2690.1l-436-49.8" stroke="#000" stroke-width="2" fill="none"/><path d="M799-2691v2l-1.13-.12.22-2zM362.13-2740.88l-.22 2-.9-.1v-2.03z"/><path d="M918.56-3597.8l-78.12-160.3" stroke="#000" stroke-width="2" fill="none"/><path d="M919-3594.6l-1.35-2.78 1.35-.65zM841.35-3758.52l-1.8.88-.66-1.36h2.2z"/><path d="M1920.67-3321.74l158.66-176.52" stroke="#000" stroke-width="2" fill="none"/><path d="M1921.43-3321.1l-.1.1h-2.67l1.28-1.43zM2080.06-3497.57l-1.5-1.34.1-.1h2.68z"/><path d="M-300-3180h160v120h-160z" stroke="#000" stroke-width="2" fill="#fff"/><use xlink:href="#C" transform="matrix(1,0,0,1,-295,-3175) translate(12.074999999999996 48.775)"/><use xlink:href="#D" transform="matrix(1,0,0,1,-295,-3175) translate(52.025 48.775)"/><use xlink:href="#n" transform="matrix(1,0,0,1,-295,-3175) translate(21.25 70.375)"/><use xlink:href="#F" transform="matrix(1,0,0,1,-295,-3175) translate(100.8 70.375)"/><use xlink:href="#G" transform="matrix(1,0,0,1,-295,-3175) translate(118.75 70.375)"/><path d="M203.4-2801.6l-341.6-256.8" stroke="#000" stroke-width="2" fill="none"/><path d="M205.88-2801h-2.95l1.06-1.42zM-137.58-3059.18l-1.2 1.6-1.88-1.42h1.66v-1.25z"/><path d="M540.2-3101.7l-198.5-196.6" stroke="#000" stroke-width="2" fill="none"/><path d="M542.33-3101h-2.85l1.4-1.43zM342.43-3299l-1.4 1.43-1.45-1.43H341v-1.4z"/><path d="M701.32-2980.7l97.36 289.75" stroke="#000" stroke-width="2" fill="none"/><path d="M702.27-2981l-1.27.44v-4.23zM799-2686.86l-1.27-3.8 1.27-.42z"/><path d="M1180-3040h160v120h-160z" stroke="#000" stroke-width="2" fill="#fff"/><g><use xlink:href="#N" transform="matrix(1,0,0,1,1185,-3035) translate(49.575 59.0875)"/></g><path d="M1182.96-3041.96l-54.05-176.08" stroke="#000" stroke-width="2" fill="none"/><path d="M1184.3-3041h-2.1l-.2-.7 1.9-.57zM1129.87-3218.3l-1.9.57-.4-1.27h2.1z"/><path d="M1670-3040h160v120h-160z" stroke="#000" stroke-width="2" fill="#fff"/><g><use xlink:href="#O" transform="matrix(1,0,0,1,1675,-3035) translate(40.05 59.0875)"/></g><path d="M1980-2860h160v120h-160z" stroke="#000" stroke-width="2" fill="#fff"/><g><use xlink:href="#P" transform="matrix(1,0,0,1,1985,-2855) translate(32.574999999999996 59.0875)"/></g><path d="M2170-1990h160v120h-160z" stroke="#000" stroke-width="2" fill="#fff"/><g><use xlink:href="#Q" transform="matrix(1,0,0,1,2175,-1985) translate(36.55 59.0875)"/></g><path d="M2331.94-1929.66l246.12 89.32" stroke="#000" stroke-width="2" fill="none"/><path d="M2332.3-1930.6l-.68 1.9-.62-.24v-2.12zM2579-1841.06v2.12l-1.3-.47.68-1.9z"/><path d="M1980-1700h160v120h-160z" stroke="#000" stroke-width="2" fill="#fff"/><g><use xlink:href="#R" transform="matrix(1,0,0,1,1985,-1695) translate(38.55 59.0875)"/></g><path d="M1440-1358v256" stroke="#000" stroke-width="2" fill="none"/><path d="M1441-1357.97h-2v-1.03h2zM1441-1101h-2v-1.03h2z"/><path d="M2018.3-1281.7l-146.2-145.46" stroke="#000" stroke-width="2" fill="none"/><path d="M2020.42-1281H2019v1.4l-1.43-1.4 1.4-1.43zM1872.83-1427.85l-1.4 1.4h-.03v-2.83z"/><path d="M2181.7-1158.3l237.6 236.6" stroke="#000" stroke-width="2" fill="none"/><path d="M2182.43-1158.98l-1.4 1.4-1.45-1.42h1.42v-1.4zM2421.42-921h-2.84v-.02l1.4-1.4z"/><path d="M-18.1-2160.43l296.2-139.14" stroke="#000" stroke-width="2" fill="none"/><path d="M-17.65-2159.53l-1.35.63v-2.2l.5-.24zM279-2298.9l-.5.24-.85-1.8 1.35-.64z"/><path d="M-18.2-2519.4l296.4 218.8" stroke="#000" stroke-width="2" fill="none"/><path d="M-17.58-2520.2l-1.2 1.6-.22-.16v-2.48zM279-2301.24v2.48l-1.42-1.04 1.2-1.6z"/><path d="M760-1900h160v120H760z" stroke="#000" stroke-width="2" fill="#fff"/><g><use xlink:href="#H" transform="matrix(1,0,0,1,765,-1895) translate(10.099999999999994 59.0875)"/><use xlink:href="#D" transform="matrix(1,0,0,1,765,-1895) translate(53.99999999999999 59.0875)"/></g><path d="M531.85-1700.52l226.3-138.96" stroke="#000" stroke-width="2" fill="none"/><path d="M532.4-1699.68l-1.4.85v-2.34l.35-.22zM759-1838.83l-.35.22-1.05-1.72 1.4-.85z"/><path d="M2141.96-2861.18l96.08-28.22" stroke="#000" stroke-width="2" fill="none"/><path d="M2142.27-2860.23l-1.27.37v-1.14h-3.16l3.86-1.15zM2239-2888.64l-.7.2-.57-1.9 1.27-.4z"/><path d="M2180-2580h160v120h-160z" stroke="#000" stroke-width="2" fill="#fff"/><g><use xlink:href="#S" transform="matrix(1,0,0,1,2185,-2575) translate(34.574999999999996 59.0875)"/></g><path d="M2660-2580h160v120h-160z" stroke="#000" stroke-width="2" fill="#fff"/><g><use xlink:href="#S" transform="matrix(1,0,0,1,2665,-2575) translate(34.574999999999996 59.0875)"/></g><path d="M3180-2580h160v120h-160z" stroke="#000" stroke-width="2" fill="#fff"/><g><use xlink:href="#S" transform="matrix(1,0,0,1,3185,-2575) translate(34.574999999999996 59.0875)"/></g><path d="M2342-2520h316" stroke="#000" stroke-width="2" fill="none"/><path d="M2342.03-2519H2341v-2h1.03zM2659-2519h-1.03v-2h1.03z"/><path d="M2822-2520h356" stroke="#000" stroke-width="2" fill="none"/><path d="M2822.03-2519H2821v-2h1.03zM3179-2519h-1.03v-2h1.03z"/><path d="M998.42-1498.18l-156.84 221.7" stroke="#000" stroke-width="2" fill="none"/><path d="M999-1499h1.22l-1 1.4-1.63-1.14 1.4-2zM842.4-1275.93l-1.4 2v-3z"/><path d="M678.34-1158.25l-156.68 176.5" stroke="#000" stroke-width="2" fill="none"/><path d="M679-1159h1.34l-1.27 1.43-1.5-1.33 1.43-1.6zM522.43-981.1l-1.43 1.6v-1.5h-1.34l1.27-1.43z"/><path d="M2661.96-1438.73l356.08 98.46" stroke="#000" stroke-width="2" fill="none"/><path d="M2662.26-1439.7l-.54 1.94-3.88-1.08.05-.16h3.1v-1.04zM3019-1341.04v2.08l-1.26-.35.54-1.94z"/><path d="M2741.98-1781.7l376.04 81.5" stroke="#000" stroke-width="2" fill="none"/><path d="M2742.2-1782.68l-.4 1.95-.8-.17v-2.04zM3119-1701.02v2.04l-1.2-.26.4-1.95z"/><path d="M1750.52-3041.85l96.05-156.3" stroke="#000" stroke-width="2" fill="none"/><path d="M1751.4-3041.35l-.23.35h-2.34l.86-1.4zM1847.4-3197.6l-1.7-1.05.22-.35h2.35z"/><path d="M1076.4-3341.87l-75.9-136.26" stroke="#000" stroke-width="2" fill="none"/><path d="M1078.04-3341h-2.3l-.22-.4 1.75-.98zM1001.37-3478.6l-1.74.98-.77-1.38h2.28z"/><path d="M620-2360h160v120H620z" stroke="#000" stroke-width="2" fill="#fff"/><g><use xlink:href="#K" transform="matrix(1,0,0,1,625,-2355) translate(42.025 48.775)"/><use xlink:href="#L" transform="matrix(1,0,0,1,625,-2355) translate(32.05 70.375)"/></g><path d="M618-2300H442" stroke="#000" stroke-width="2" fill="none"/><path d="M619-2299h-1.03v-2H619zM442.03-2299H441v-2h1.03z"/><defs><path d="M30-248c87 1 191-15 191 75 0 78-77 80-158 76V0H30v-248zm33 125c57 0 124 11 124-50 0-59-68-47-124-48v98" id="T"/><path d="M114-163C36-179 61-72 57 0H25l-1-190h30c1 12-1 29 2 39 6-27 23-49 58-41v29" id="U"/><path d="M100-194c62-1 85 37 85 99 1 63-27 99-86 99S16-35 15-95c0-66 28-99 85-99zM99-20c44 1 53-31 53-75 0-43-8-75-51-75s-53 32-53 75 10 74 51 75" id="V"/><path d="M96-169c-40 0-48 33-48 73s9 75 48 75c24 0 41-14 43-38l32 2c-6 37-31 61-74 61-59 0-76-41-82-99-10-93 101-131 147-64 4 7 5 14 7 22l-32 3c-4-21-16-35-41-35" id="W"/><path d="M100-194c63 0 86 42 84 106H49c0 40 14 67 53 68 26 1 43-12 49-29l28 8c-11 28-37 45-77 45C44 4 14-33 15-96c1-61 26-98 85-98zm52 81c6-60-76-77-97-28-3 7-6 17-6 28h103" id="X"/><path d="M135-143c-3-34-86-38-87 0 15 53 115 12 119 90S17 21 10-45l28-5c4 36 97 45 98 0-10-56-113-15-118-90-4-57 82-63 122-42 12 7 21 19 24 35" id="Y"/><g id="a"><use transform="matrix(0.05,0,0,0.05,0,0)" xlink:href="#T"/><use transform="matrix(0.05,0,0,0.05,12,0)" xlink:href="#U"/><use transform="matrix(0.05,0,0,0.05,17.95,0)" xlink:href="#V"/><use transform="matrix(0.05,0,0,0.05,27.950000000000003,0)" xlink:href="#W"/><use transform="matrix(0.05,0,0,0.05,36.95,0)" xlink:href="#X"/><use transform="matrix(0.05,0,0,0.05,46.95,0)" xlink:href="#Y"/><use transform="matrix(0.05,0,0,0.05,55.95,0)" xlink:href="#Y"/><use transform="matrix(0.05,0,0,0.05,64.95,0)" xlink:href="#V"/><use transform="matrix(0.05,0,0,0.05,74.95,0)" xlink:href="#U"/></g><path d="M106-169C34-169 62-67 57 0H25v-261h32l-1 103c12-21 28-36 61-36 89 0 53 116 60 194h-32v-121c2-32-8-49-39-48" id="Z"/><path d="M141-36C126-15 110 5 73 4 37 3 15-17 15-53c-1-64 63-63 125-63 3-35-9-54-41-54-24 1-41 7-42 31l-33-3c5-37 33-52 76-52 45 0 72 20 72 64v82c-1 20 7 32 28 27v20c-31 9-61-2-59-35zM48-53c0 20 12 33 32 33 41-3 63-29 60-74-43 2-92-5-92 41" id="aa"/><path d="M115-194c55 1 70 41 70 98S169 2 115 4C84 4 66-9 55-30l1 105H24l-1-265h31l2 30c10-21 28-34 59-34zm-8 174c40 0 45-34 45-75s-6-73-45-74c-42 0-51 32-51 76 0 43 10 73 51 73" id="ab"/><g id="b"><use transform="matrix(0.05,0,0,0.05,0,0)" xlink:href="#Y"/><use transform="matrix(0.05,0,0,0.05,9,0)" xlink:href="#Z"/><use transform="matrix(0.05,0,0,0.05,19,0)" xlink:href="#aa"/><use transform="matrix(0.05,0,0,0.05,29,0)" xlink:href="#ab"/><use transform="matrix(0.05,0,0,0.05,39,0)" xlink:href="#X"/><use transform="matrix(0.05,0,0,0.05,49,0)" xlink:href="#U"/></g><path d="M63-220v92h138v28H63V0H30v-248h175v28H63" id="ac"/><path d="M84 4C-5 8 30-112 23-190h32v120c0 31 7 50 39 49 72-2 45-101 50-169h31l1 190h-30c-1-10 1-25-2-33-11 22-28 36-60 37" id="ad"/><path d="M117-194c89-4 53 116 60 194h-32v-121c0-31-8-49-39-48C34-167 62-67 57 0H25l-1-190h30c1 10-1 24 2 32 11-22 29-35 61-36" id="ae"/><g id="c"><use transform="matrix(0.05,0,0,0.05,0,0)" xlink:href="#ac"/><use transform="matrix(0.05,0,0,0.05,10.950000000000001,0)" xlink:href="#ad"/><use transform="matrix(0.05,0,0,0.05,20.950000000000003,0)" xlink:href="#U"/><use transform="matrix(0.05,0,0,0.05,26.900000000000002,0)" xlink:href="#ae"/><use transform="matrix(0.05,0,0,0.05,36.900000000000006,0)" xlink:href="#aa"/><use transform="matrix(0.05,0,0,0.05,46.900000000000006,0)" xlink:href="#W"/><use transform="matrix(0.05,0,0,0.05,55.900000000000006,0)" xlink:href="#X"/></g><path d="M185-189c-5-48-123-54-124 2 14 75 158 14 163 119 3 78-121 87-175 55-17-10-28-26-33-46l33-7c5 56 141 63 141-1 0-78-155-14-162-118-5-82 145-84 179-34 5 7 8 16 11 25" id="af"/><path d="M59-47c-2 24 18 29 38 22v24C64 9 27 4 27-40v-127H5v-23h24l9-43h21v43h35v23H59v120" id="ag"/><g id="d"><use transform="matrix(0.05,0,0,0.05,0,0)" xlink:href="#af"/><use transform="matrix(0.05,0,0,0.05,12,0)" xlink:href="#V"/><use transform="matrix(0.05,0,0,0.05,22,0)" xlink:href="#U"/><use transform="matrix(0.05,0,0,0.05,27.950000000000003,0)" xlink:href="#ag"/><use transform="matrix(0.05,0,0,0.05,32.95,0)" xlink:href="#X"/><use transform="matrix(0.05,0,0,0.05,42.95,0)" xlink:href="#U"/></g><path d="M205 0l-28-72H64L36 0H1l101-248h38L239 0h-34zm-38-99l-47-123c-12 45-31 82-46 123h93" id="ah"/><path d="M210-169c-67 3-38 105-44 169h-31v-121c0-29-5-50-35-48C34-165 62-65 56 0H25l-1-190h30c1 10-1 24 2 32 10-44 99-50 107 0 11-21 27-35 58-36 85-2 47 119 55 194h-31v-121c0-29-5-49-35-48" id="ai"/><path d="M115-194c53 0 69 39 70 98 0 66-23 100-70 100C84 3 66-7 56-30L54 0H23l1-261h32v101c10-23 28-34 59-34zm-8 174c40 0 45-34 45-75 0-40-5-75-45-74-42 0-51 32-51 76 0 43 10 73 51 73" id="aj"/><path d="M24 0v-261h32V0H24" id="ak"/><g id="e"><use transform="matrix(0.05,0,0,0.05,0,0)" xlink:href="#ah"/><use transform="matrix(0.05,0,0,0.05,12,0)" xlink:href="#Y"/><use transform="matrix(0.05,0,0,0.05,21,0)" xlink:href="#Y"/><use transform="matrix(0.05,0,0,0.05,30,0)" xlink:href="#X"/><use transform="matrix(0.05,0,0,0.05,40,0)" xlink:href="#ai"/><use transform="matrix(0.05,0,0,0.05,54.95,0)" xlink:href="#aj"/><use transform="matrix(0.05,0,0,0.05,64.95,0)" xlink:href="#ak"/><use transform="matrix(0.05,0,0,0.05,68.9,0)" xlink:href="#X"/><use transform="matrix(0.05,0,0,0.05,78.9,0)" xlink:href="#U"/></g><path d="M143 0L79-87 56-68V0H24v-261h32v163l83-92h37l-77 82L181 0h-38" id="al"/><path d="M101-251c82-7 93 87 43 132L82-64C71-53 59-42 53-27h129V0H18c2-99 128-94 128-182 0-28-16-43-45-43s-46 15-49 41l-32-3c6-41 34-60 81-64" id="am"/><g id="f"><use transform="matrix(0.05,0,0,0.05,0,0)" xlink:href="#ai"/><use transform="matrix(0.05,0,0,0.05,14.950000000000001,0)" xlink:href="#al"/><use transform="matrix(0.05,0,0,0.05,23.950000000000003,0)" xlink:href="#am"/></g><path d="M126-127c33 6 58 20 58 59 0 88-139 92-164 29-3-8-5-16-6-25l32-3c6 27 21 44 54 44 32 0 52-15 52-46 0-38-36-46-79-43v-28c39 1 72-4 72-42 0-27-17-43-46-43-28 0-47 15-49 41l-32-3c6-42 35-63 81-64 48-1 79 21 79 65 0 36-21 52-52 59" id="an"/><g id="g"><use transform="matrix(0.05,0,0,0.05,0,0)" xlink:href="#ai"/><use transform="matrix(0.05,0,0,0.05,14.950000000000001,0)" xlink:href="#al"/><use transform="matrix(0.05,0,0,0.05,23.950000000000003,0)" xlink:href="#an"/></g><path d="M155-56V0h-30v-56H8v-25l114-167h33v167h35v25h-35zm-30-156c-27 46-58 90-88 131h88v-131" id="ao"/><g id="h"><use transform="matrix(0.05,0,0,0.05,0,0)" xlink:href="#ai"/><use transform="matrix(0.05,0,0,0.05,14.950000000000001,0)" xlink:href="#al"/><use transform="matrix(0.05,0,0,0.05,23.950000000000003,0)" xlink:href="#ao"/></g><g id="i"><use transform="matrix(0.05,0,0,0.05,0,0)" xlink:href="#Y"/><use transform="matrix(0.05,0,0,0.05,9,0)" xlink:href="#Z"/><use transform="matrix(0.05,0,0,0.05,19,0)" xlink:href="#aa"/><use transform="matrix(0.05,0,0,0.05,29,0)" xlink:href="#ab"/><use transform="matrix(0.05,0,0,0.05,39,0)" xlink:href="#X"/><use transform="matrix(0.05,0,0,0.05,49,0)" xlink:href="#U"/></g><path d="M101-234c-31-9-42 10-38 44h38v23H63V0H32v-167H5v-23h27c-7-52 17-82 69-68v24" id="ap"/><path d="M24-231v-30h32v30H24zM24 0v-190h32V0H24" id="aq"/><path d="M179-190L93 31C79 59 56 82 12 73V49c39 6 53-20 64-50L1-190h34L92-34l54-156h33" id="ar"/><g id="j"><use transform="matrix(0.05,0,0,0.05,0,0)" xlink:href="#X"/><use transform="matrix(0.05,0,0,0.05,10,0)" xlink:href="#ap"/><use transform="matrix(0.05,0,0,0.05,14.65,0)" xlink:href="#ap"/><use transform="matrix(0.05,0,0,0.05,19.65,0)" xlink:href="#aq"/><use transform="matrix(0.05,0,0,0.05,23.599999999999998,0)" xlink:href="#W"/><use transform="matrix(0.05,0,0,0.05,32.599999999999994,0)" xlink:href="#aq"/><use transform="matrix(0.05,0,0,0.05,36.55,0)" xlink:href="#X"/><use transform="matrix(0.05,0,0,0.05,46.55,0)" xlink:href="#ae"/><use transform="matrix(0.05,0,0,0.05,56.54999999999999,0)" xlink:href="#W"/><use transform="matrix(0.05,0,0,0.05,65.55,0)" xlink:href="#ar"/></g><path d="M108 0H70L1-190h34L89-25l56-165h34" id="as"/><g id="k"><use transform="matrix(0.05,0,0,0.05,0,0)" xlink:href="#ak"/><use transform="matrix(0.05,0,0,0.05,3.95,0)" xlink:href="#as"/><use transform="matrix(0.05,0,0,0.05,12.949999999999998,0)" xlink:href="#am"/></g><g id="l"><use transform="matrix(0.05,0,0,0.05,0,0)" xlink:href="#ak"/><use transform="matrix(0.05,0,0,0.05,3.95,0)" xlink:href="#as"/><use transform="matrix(0.05,0,0,0.05,12.949999999999998,0)" xlink:href="#an"/></g><g id="m"><use transform="matrix(0.05,0,0,0.05,0,0)" xlink:href="#af"/><use transform="matrix(0.05,0,0,0.05,12,0)" xlink:href="#ag"/><use transform="matrix(0.05,0,0,0.05,17,0)" xlink:href="#U"/><use transform="matrix(0.05,0,0,0.05,22.95,0)" xlink:href="#X"/><use transform="matrix(0.05,0,0,0.05,32.95,0)" xlink:href="#ag"/><use transform="matrix(0.05,0,0,0.05,37.95,0)" xlink:href="#W"/><use transform="matrix(0.05,0,0,0.05,46.95,0)" xlink:href="#Z"/><use transform="matrix(0.05,0,0,0.05,56.95,0)" xlink:href="#X"/><use transform="matrix(0.05,0,0,0.05,66.95,0)" xlink:href="#U"/></g><g id="n"><use transform="matrix(0.05,0,0,0.05,0,0)" xlink:href="#X"/><use transform="matrix(0.05,0,0,0.05,10,0)" xlink:href="#ap"/><use transform="matrix(0.05,0,0,0.05,14.65,0)" xlink:href="#ap"/><use transform="matrix(0.05,0,0,0.05,19.65,0)" xlink:href="#aq"/><use transform="matrix(0.05,0,0,0.05,23.599999999999998,0)" xlink:href="#W"/><use transform="matrix(0.05,0,0,0.05,32.599999999999994,0)" xlink:href="#aq"/><use transform="matrix(0.05,0,0,0.05,36.55,0)" xlink:href="#X"/><use transform="matrix(0.05,0,0,0.05,46.55,0)" xlink:href="#ae"/><use transform="matrix(0.05,0,0,0.05,56.54999999999999,0)" xlink:href="#W"/><use transform="matrix(0.05,0,0,0.05,65.55,0)" xlink:href="#ar"/></g><g id="o"><use transform="matrix(0.05,0,0,0.05,0,0)" xlink:href="#af"/><use transform="matrix(0.05,0,0,0.05,12,0)" xlink:href="#V"/><use transform="matrix(0.05,0,0,0.05,22,0)" xlink:href="#U"/><use transform="matrix(0.05,0,0,0.05,27.950000000000003,0)" xlink:href="#ag"/><use transform="matrix(0.05,0,0,0.05,32.95,0)" xlink:href="#X"/><use transform="matrix(0.05,0,0,0.05,42.95,0)" xlink:href="#U"/></g><g id="p"><use transform="matrix(0.05,0,0,0.05,0,0)" xlink:href="#W"/><use transform="matrix(0.05,0,0,0.05,9,0)" xlink:href="#V"/><use transform="matrix(0.05,0,0,0.05,19,0)" xlink:href="#ae"/><use transform="matrix(0.05,0,0,0.05,29,0)" xlink:href="#as"/><use transform="matrix(0.05,0,0,0.05,38,0)" xlink:href="#X"/><use transform="matrix(0.05,0,0,0.05,48,0)" xlink:href="#ar"/><use transform="matrix(0.05,0,0,0.05,57,0)" xlink:href="#V"/><use transform="matrix(0.05,0,0,0.05,67,0)" xlink:href="#U"/></g><g id="q"><use transform="matrix(0.05,0,0,0.05,0,0)" xlink:href="#aj"/><use transform="matrix(0.05,0,0,0.05,10,0)" xlink:href="#X"/><use transform="matrix(0.05,0,0,0.05,20,0)" xlink:href="#ak"/><use transform="matrix(0.05,0,0,0.05,23.95,0)" xlink:href="#ag"/></g><g id="r"><use transform="matrix(0.05,0,0,0.05,0,0)" xlink:href="#af"/><use transform="matrix(0.05,0,0,0.05,12,0)" xlink:href="#ab"/><use transform="matrix(0.05,0,0,0.05,22,0)" xlink:href="#ak"/><use transform="matrix(0.05,0,0,0.05,25.950000000000003,0)" xlink:href="#aq"/><use transform="matrix(0.05,0,0,0.05,29.899999999999995,0)" xlink:href="#ag"/><use transform="matrix(0.05,0,0,0.05,34.9,0)" xlink:href="#X"/><use transform="matrix(0.05,0,0,0.05,44.9,0)" xlink:href="#U"/></g><g id="s"><use transform="matrix(0.05,0,0,0.05,0,0)" xlink:href="#ab"/><use transform="matrix(0.05,0,0,0.05,10,0)" xlink:href="#U"/><use transform="matrix(0.05,0,0,0.05,15.949999999999998,0)" xlink:href="#V"/><use transform="matrix(0.05,0,0,0.05,25.950000000000003,0)" xlink:href="#W"/><use transform="matrix(0.05,0,0,0.05,34.95,0)" xlink:href="#X"/><use transform="matrix(0.05,0,0,0.05,44.95,0)" xlink:href="#Y"/><use transform="matrix(0.05,0,0,0.05,53.95,0)" xlink:href="#Y"/><use transform="matrix(0.05,0,0,0.05,62.95,0)" xlink:href="#V"/><use transform="matrix(0.05,0,0,0.05,72.95,0)" xlink:href="#U"/></g><g id="t"><use transform="matrix(0.05,0,0,0.05,0,0)" xlink:href="#ac"/><use transform="matrix(0.05,0,0,0.05,10.950000000000001,0)" xlink:href="#ad"/><use transform="matrix(0.05,0,0,0.05,20.950000000000003,0)" xlink:href="#U"/><use transform="matrix(0.05,0,0,0.05,26.900000000000002,0)" xlink:href="#ae"/><use transform="matrix(0.05,0,0,0.05,36.900000000000006,0)" xlink:href="#aa"/><use transform="matrix(0.05,0,0,0.05,46.900000000000006,0)" xlink:href="#W"/><use transform="matrix(0.05,0,0,0.05,55.900000000000006,0)" xlink:href="#X"/></g><path d="M85-194c31 0 48 13 60 33l-1-100h32l1 261h-30c-2-10 0-23-3-31C134-8 116 4 85 4 32 4 16-35 15-94c0-66 23-100 70-100zm9 24c-40 0-46 34-46 75 0 40 6 74 45 74 42 0 51-32 51-76 0-42-9-74-50-73" id="at"/><g id="u"><use transform="matrix(0.05,0,0,0.05,0,0)" xlink:href="#Y"/><use transform="matrix(0.05,0,0,0.05,9,0)" xlink:href="#ab"/><use transform="matrix(0.05,0,0,0.05,19,0)" xlink:href="#X"/><use transform="matrix(0.05,0,0,0.05,29,0)" xlink:href="#X"/><use transform="matrix(0.05,0,0,0.05,39,0)" xlink:href="#at"/></g><g id="v"><use transform="matrix(0.05,0,0,0.05,0,0)" xlink:href="#ah"/><use transform="matrix(0.05,0,0,0.05,12,0)" xlink:href="#Y"/><use transform="matrix(0.05,0,0,0.05,21,0)" xlink:href="#Y"/><use transform="matrix(0.05,0,0,0.05,30,0)" xlink:href="#X"/><use transform="matrix(0.05,0,0,0.05,40,0)" xlink:href="#ai"/><use transform="matrix(0.05,0,0,0.05,54.95,0)" xlink:href="#aj"/><use transform="matrix(0.05,0,0,0.05,64.95,0)" xlink:href="#ak"/><use transform="matrix(0.05,0,0,0.05,68.9,0)" xlink:href="#X"/><use transform="matrix(0.05,0,0,0.05,78.9,0)" xlink:href="#U"/></g><g id="w"><use transform="matrix(0.05,0,0,0.05,0,0)" xlink:href="#X"/><use transform="matrix(0.05,0,0,0.05,10,0)" xlink:href="#ap"/><use transform="matrix(0.05,0,0,0.05,14.65,0)" xlink:href="#ap"/><use transform="matrix(0.05,0,0,0.05,19.65,0)" xlink:href="#aq"/><use transform="matrix(0.05,0,0,0.05,23.599999999999998,0)" xlink:href="#W"/><use transform="matrix(0.05,0,0,0.05,32.599999999999994,0)" xlink:href="#aq"/><use transform="matrix(0.05,0,0,0.05,36.55,0)" xlink:href="#ae"/><use transform="matrix(0.05,0,0,0.05,46.55,0)" xlink:href="#W"/><use transform="matrix(0.05,0,0,0.05,55.54999999999999,0)" xlink:href="#ar"/></g><g id="x"><use transform="matrix(0.05,0,0,0.05,0,0)" xlink:href="#W"/><use transform="matrix(0.05,0,0,0.05,9,0)" xlink:href="#V"/><use transform="matrix(0.05,0,0,0.05,19,0)" xlink:href="#ae"/><use transform="matrix(0.05,0,0,0.05,29,0)" xlink:href="#as"/><use transform="matrix(0.05,0,0,0.05,38,0)" xlink:href="#X"/><use transform="matrix(0.05,0,0,0.05,48,0)" xlink:href="#ar"/><use transform="matrix(0.05,0,0,0.05,57,0)" xlink:href="#V"/><use transform="matrix(0.05,0,0,0.05,67,0)" xlink:href="#U"/></g><g id="y"><use transform="matrix(0.05,0,0,0.05,0,0)" xlink:href="#X"/><use transform="matrix(0.05,0,0,0.05,10,0)" xlink:href="#ap"/><use transform="matrix(0.05,0,0,0.05,14.65,0)" xlink:href="#ap"/><use transform="matrix(0.05,0,0,0.05,19.3,0)" xlink:href="#ap"/><use transform="matrix(0.05,0,0,0.05,24.3,0)" xlink:href="#aq"/><use transform="matrix(0.05,0,0,0.05,28.25,0)" xlink:href="#W"/><use transform="matrix(0.05,0,0,0.05,37.25,0)" xlink:href="#aq"/><use transform="matrix(0.05,0,0,0.05,41.2,0)" xlink:href="#X"/><use transform="matrix(0.05,0,0,0.05,51.2,0)" xlink:href="#ae"/><use transform="matrix(0.05,0,0,0.05,61.2,0)" xlink:href="#W"/><use transform="matrix(0.05,0,0,0.05,70.2,0)" xlink:href="#ar"/></g><g id="z"><use transform="matrix(0.05,0,0,0.05,0,0)" xlink:href="#Y"/><use transform="matrix(0.05,0,0,0.05,9,0)" xlink:href="#ab"/><use transform="matrix(0.05,0,0,0.05,19,0)" xlink:href="#ak"/><use transform="matrix(0.05,0,0,0.05,22.95,0)" xlink:href="#aq"/><use transform="matrix(0.05,0,0,0.05,26.899999999999995,0)" xlink:href="#ag"/><use transform="matrix(0.05,0,0,0.05,31.899999999999995,0)" xlink:href="#X"/><use transform="matrix(0.05,0,0,0.05,41.9,0)" xlink:href="#U"/></g><path d="M177-190C167-65 218 103 67 71c-23-6-38-20-44-43l32-5c15 47 100 32 89-28v-30C133-14 115 1 83 1 29 1 15-40 15-95c0-56 16-97 71-98 29-1 48 16 59 35 1-10 0-23 2-32h30zM94-22c36 0 50-32 50-73 0-42-14-75-50-75-39 0-46 34-46 75s6 73 46 73" id="au"/><g id="A"><use transform="matrix(0.05,0,0,0.05,0,0)" xlink:href="#af"/><use transform="matrix(0.05,0,0,0.05,12,0)" xlink:href="#Z"/><use transform="matrix(0.05,0,0,0.05,22,0)" xlink:href="#aq"/><use transform="matrix(0.05,0,0,0.05,25.950000000000003,0)" xlink:href="#ab"/><use transform="matrix(0.05,0,0,0.05,35.95,0)" xlink:href="#ab"/><use transform="matrix(0.05,0,0,0.05,45.95,0)" xlink:href="#aq"/><use transform="matrix(0.05,0,0,0.05,49.900000000000006,0)" xlink:href="#ae"/><use transform="matrix(0.05,0,0,0.05,59.900000000000006,0)" xlink:href="#au"/></g><g id="B"><use transform="matrix(0.05,0,0,0.05,0,0)" xlink:href="#af"/><use transform="matrix(0.05,0,0,0.05,12,0)" xlink:href="#Z"/><use transform="matrix(0.05,0,0,0.05,22,0)" xlink:href="#aq"/><use transform="matrix(0.05,0,0,0.05,25.950000000000003,0)" xlink:href="#ab"/><use transform="matrix(0.05,0,0,0.05,35.95,0)" xlink:href="#ab"/><use transform="matrix(0.05,0,0,0.05,45.95,0)" xlink:href="#aq"/><use transform="matrix(0.05,0,0,0.05,49.900000000000006,0)" xlink:href="#ae"/><use transform="matrix(0.05,0,0,0.05,59.900000000000006,0)" xlink:href="#au"/></g><g id="C"><use transform="matrix(0.05,0,0,0.05,0,0)" xlink:href="#af"/><use transform="matrix(0.05,0,0,0.05,12,0)" xlink:href="#al"/><use transform="matrix(0.05,0,0,0.05,21,0)" xlink:href="#aq"/><use transform="matrix(0.05,0,0,0.05,24.95,0)" xlink:href="#ae"/></g><g id="D"><use transform="matrix(0.05,0,0,0.05,0,0)" xlink:href="#T"/><use transform="matrix(0.05,0,0,0.05,12,0)" xlink:href="#U"/><use transform="matrix(0.05,0,0,0.05,17.95,0)" xlink:href="#V"/><use transform="matrix(0.05,0,0,0.05,27.950000000000003,0)" xlink:href="#at"/><use transform="matrix(0.05,0,0,0.05,37.95,0)" xlink:href="#ad"/><use transform="matrix(0.05,0,0,0.05,47.95,0)" xlink:href="#W"/><use transform="matrix(0.05,0,0,0.05,56.95,0)" xlink:href="#ag"/><use transform="matrix(0.05,0,0,0.05,61.95,0)" xlink:href="#aq"/><use transform="matrix(0.05,0,0,0.05,65.9,0)" xlink:href="#V"/><use transform="matrix(0.05,0,0,0.05,75.9,0)" xlink:href="#ae"/></g><g id="E"><use transform="matrix(0.05,0,0,0.05,0,0)" xlink:href="#Y"/><use transform="matrix(0.05,0,0,0.05,9,0)" xlink:href="#ab"/><use transform="matrix(0.05,0,0,0.05,19,0)" xlink:href="#X"/><use transform="matrix(0.05,0,0,0.05,29,0)" xlink:href="#X"/><use transform="matrix(0.05,0,0,0.05,39,0)" xlink:href="#at"/></g><g id="F"><use transform="matrix(0.05,0,0,0.05,0,0)" xlink:href="#ak"/><use transform="matrix(0.05,0,0,0.05,3.95,0)" xlink:href="#as"/></g><use transform="matrix(0.05,0,0,0.05,0,0)" xlink:href="#an" id="G"/><path d="M30 0v-248h33v221h125V0H30" id="av"/><g id="H"><use transform="matrix(0.05,0,0,0.05,0,0)" xlink:href="#av"/><use transform="matrix(0.05,0,0,0.05,10,0)" xlink:href="#aq"/><use transform="matrix(0.05,0,0,0.05,13.949999999999998,0)" xlink:href="#ai"/><use transform="matrix(0.05,0,0,0.05,28.899999999999995,0)" xlink:href="#aj"/></g><g id="I"><use transform="matrix(0.05,0,0,0.05,0,0)" xlink:href="#ai"/><use transform="matrix(0.05,0,0,0.05,14.950000000000001,0)" xlink:href="#al"/></g><use transform="matrix(0.05,0,0,0.05,0,0)" xlink:href="#am" id="J"/><g id="K"><use transform="matrix(0.05,0,0,0.05,0,0)" xlink:href="#af"/><use transform="matrix(0.05,0,0,0.05,12,0)" xlink:href="#X"/><use transform="matrix(0.05,0,0,0.05,22,0)" xlink:href="#ae"/><use transform="matrix(0.05,0,0,0.05,32,0)" xlink:href="#Y"/><use transform="matrix(0.05,0,0,0.05,41,0)" xlink:href="#V"/><use transform="matrix(0.05,0,0,0.05,51,0)" xlink:href="#U"/><use transform="matrix(0.05,0,0,0.05,56.95,0)" xlink:href="#ar"/></g><g id="L"><use transform="matrix(0.05,0,0,0.05,0,0)" xlink:href="#T"/><use transform="matrix(0.05,0,0,0.05,12,0)" xlink:href="#U"/><use transform="matrix(0.05,0,0,0.05,17.95,0)" xlink:href="#V"/><use transform="matrix(0.05,0,0,0.05,27.950000000000003,0)" xlink:href="#at"/><use transform="matrix(0.05,0,0,0.05,37.95,0)" xlink:href="#ad"/><use transform="matrix(0.05,0,0,0.05,47.95,0)" xlink:href="#W"/><use transform="matrix(0.05,0,0,0.05,56.95,0)" xlink:href="#ag"/><use transform="matrix(0.05,0,0,0.05,61.95,0)" xlink:href="#aq"/><use transform="matrix(0.05,0,0,0.05,65.9,0)" xlink:href="#V"/><use transform="matrix(0.05,0,0,0.05,75.9,0)" xlink:href="#ae"/></g><g id="M"><use transform="matrix(0.05,0,0,0.05,0,0)" xlink:href="#T"/><use transform="matrix(0.05,0,0,0.05,12,0)" xlink:href="#U"/><use transform="matrix(0.05,0,0,0.05,17.95,0)" xlink:href="#V"/><use transform="matrix(0.05,0,0,0.05,27.950000000000003,0)" xlink:href="#at"/><use transform="matrix(0.05,0,0,0.05,37.95,0)" xlink:href="#ad"/><use transform="matrix(0.05,0,0,0.05,47.95,0)" xlink:href="#W"/><use transform="matrix(0.05,0,0,0.05,56.95,0)" xlink:href="#ag"/><use transform="matrix(0.05,0,0,0.05,61.95,0)" xlink:href="#aq"/><use transform="matrix(0.05,0,0,0.05,65.9,0)" xlink:href="#V"/><use transform="matrix(0.05,0,0,0.05,75.9,0)" xlink:href="#ae"/></g><g id="N"><use transform="matrix(0.05,0,0,0.05,0,0)" xlink:href="#af"/><use transform="matrix(0.05,0,0,0.05,12,0)" xlink:href="#ab"/><use transform="matrix(0.05,0,0,0.05,22,0)" xlink:href="#ak"/><use transform="matrix(0.05,0,0,0.05,25.950000000000003,0)" xlink:href="#aq"/><use transform="matrix(0.05,0,0,0.05,29.899999999999995,0)" xlink:href="#ag"/><use transform="matrix(0.05,0,0,0.05,34.9,0)" xlink:href="#X"/><use transform="matrix(0.05,0,0,0.05,44.9,0)" xlink:href="#U"/></g><g id="O"><use transform="matrix(0.05,0,0,0.05,0,0)" xlink:href="#af"/><use transform="matrix(0.05,0,0,0.05,12,0)" xlink:href="#Z"/><use transform="matrix(0.05,0,0,0.05,22,0)" xlink:href="#aq"/><use transform="matrix(0.05,0,0,0.05,25.950000000000003,0)" xlink:href="#ab"/><use transform="matrix(0.05,0,0,0.05,35.95,0)" xlink:href="#ab"/><use transform="matrix(0.05,0,0,0.05,45.95,0)" xlink:href="#aq"/><use transform="matrix(0.05,0,0,0.05,49.900000000000006,0)" xlink:href="#ae"/><use transform="matrix(0.05,0,0,0.05,59.900000000000006,0)" xlink:href="#au"/></g><g id="P"><use transform="matrix(0.05,0,0,0.05,0,0)" xlink:href="#ah"/><use transform="matrix(0.05,0,0,0.05,12,0)" xlink:href="#Y"/><use transform="matrix(0.05,0,0,0.05,21,0)" xlink:href="#Y"/><use transform="matrix(0.05,0,0,0.05,30,0)" xlink:href="#X"/><use transform="matrix(0.05,0,0,0.05,40,0)" xlink:href="#ai"/><use transform="matrix(0.05,0,0,0.05,54.95,0)" xlink:href="#aj"/><use transform="matrix(0.05,0,0,0.05,64.95,0)" xlink:href="#ak"/><use transform="matrix(0.05,0,0,0.05,68.9,0)" xlink:href="#X"/><use transform="matrix(0.05,0,0,0.05,78.9,0)" xlink:href="#U"/></g><path d="M212-179c-10-28-35-45-73-45-59 0-87 40-87 99 0 60 29 101 89 101 43 0 62-24 78-52l27 14C228-24 195 4 139 4 59 4 22-46 18-125c-6-104 99-153 187-111 19 9 31 26 39 46" id="aw"/><g id="Q"><use transform="matrix(0.05,0,0,0.05,0,0)" xlink:href="#aw"/><use transform="matrix(0.05,0,0,0.05,12.950000000000001,0)" xlink:href="#V"/><use transform="matrix(0.05,0,0,0.05,22.950000000000003,0)" xlink:href="#ae"/><use transform="matrix(0.05,0,0,0.05,32.95,0)" xlink:href="#as"/><use transform="matrix(0.05,0,0,0.05,41.95,0)" xlink:href="#X"/><use transform="matrix(0.05,0,0,0.05,51.95,0)" xlink:href="#ar"/><use transform="matrix(0.05,0,0,0.05,60.95,0)" xlink:href="#V"/><use transform="matrix(0.05,0,0,0.05,70.95,0)" xlink:href="#U"/></g><g id="R"><use transform="matrix(0.05,0,0,0.05,0,0)" xlink:href="#af"/><use transform="matrix(0.05,0,0,0.05,12,0)" xlink:href="#ag"/><use transform="matrix(0.05,0,0,0.05,17,0)" xlink:href="#U"/><use transform="matrix(0.05,0,0,0.05,22.95,0)" xlink:href="#X"/><use transform="matrix(0.05,0,0,0.05,32.95,0)" xlink:href="#ag"/><use transform="matrix(0.05,0,0,0.05,37.95,0)" xlink:href="#W"/><use transform="matrix(0.05,0,0,0.05,46.95,0)" xlink:href="#Z"/><use transform="matrix(0.05,0,0,0.05,56.95,0)" xlink:href="#X"/><use transform="matrix(0.05,0,0,0.05,66.95,0)" xlink:href="#U"/></g><path d="M30-248c118-7 216 8 213 122C240-48 200 0 122 0H30v-248zM63-27c89 8 146-16 146-99s-60-101-146-95v194" id="ax"/><g id="S"><use transform="matrix(0.05,0,0,0.05,0,0)" xlink:href="#ax"/><use transform="matrix(0.05,0,0,0.05,12.950000000000001,0)" xlink:href="#aq"/><use transform="matrix(0.05,0,0,0.05,16.900000000000002,0)" xlink:href="#Y"/><use transform="matrix(0.05,0,0,0.05,25.900000000000002,0)" xlink:href="#ab"/><use transform="matrix(0.05,0,0,0.05,35.900000000000006,0)" xlink:href="#X"/><use transform="matrix(0.05,0,0,0.05,45.900000000000006,0)" xlink:href="#ae"/><use transform="matrix(0.05,0,0,0.05,55.900000000000006,0)" xlink:href="#Y"/><use transform="matrix(0.05,0,0,0.05,64.9,0)" xlink:href="#X"/><use transform="matrix(0.05,0,0,0.05,74.9,0)" xlink:href="#U"/></g></defs></g></svg>